STARTFONT 2.3
FONT -FontForge-Permanent Marker-Book-R-Normal--18-180-72-72-P-104-ISO10646-1
SIZE 18 72 72  4
FONTBOUNDINGBOX 29 26 -6 -6
COMMENT "Generated by fontforge, http://fontforge.sourceforge.net"
COMMENT "Copyright (c) 2010 by Font Diner, Inc. All rights reserved."
STARTPROPERTIES 40
FOUNDRY "FontForge"
FAMILY_NAME "Permanent Marker"
WEIGHT_NAME "Book"
SLANT "R"
SETWIDTH_NAME "Normal"
ADD_STYLE_NAME ""
PIXEL_SIZE 18
POINT_SIZE 180
RESOLUTION_X 72
RESOLUTION_Y 72
SPACING "P"
AVERAGE_WIDTH 104
CHARSET_REGISTRY "ISO10646"
CHARSET_ENCODING "1"
FONTNAME_REGISTRY ""
CHARSET_COLLECTIONS "ISO10646-1"
BITS_PER_PIXEL 4
FONT_NAME "PermanentMarker-Regular"
FACE_NAME "Permanent Marker Regular"
COPYRIGHT "Copyright (c) 2010 by Font Diner, Inc. All rights reserved."
FONT_VERSION "1.001"
FONT_ASCENT 14
FONT_DESCENT 4
UNDERLINE_POSITION -2
UNDERLINE_THICKNESS 1
X_HEIGHT 10
CAP_HEIGHT 12
RAW_ASCENT 799
RAW_DESCENT 200
NORM_SPACE 7
RELATIVE_WEIGHT 40
RELATIVE_SETWIDTH 50
SUPERSCRIPT_X 0
SUPERSCRIPT_Y 8
SUPERSCRIPT_SIZE 11
SUBSCRIPT_X 0
SUBSCRIPT_Y 2
SUBSCRIPT_SIZE 11
AVG_LOWERCASE_WIDTH 101
AVG_UPPERCASE_WIDTH 122
ENDPROPERTIES
CHARS 230
STARTCHAR space
ENCODING 32
SWIDTH 370 0
DWIDTH 7 0
BBX 1 1 0 0
BITMAP
00
ENDCHAR
STARTCHAR exclam
ENCODING 33
SWIDTH 260 0
DWIDTH 5 0
BBX 5 15 0 -1
BITMAP
000310
004F70
009FC0
00DFC0
00EF80
03FF50
07FF30
0AFF00
0BFB00
07D400
000000
3A6000
DFF200
9FD000
161000
ENDCHAR
STARTCHAR quotedbl
ENCODING 34
SWIDTH 492 0
DWIDTH 9 0
BBX 9 10 1 4
BITMAP
0040004100
04FD22FE40
09FF67FF60
0EFE1BFF10
2FFA1FFA00
6FF65FF500
7FF38FF300
8FD0AFD000
1E804F8000
0100030000
ENDCHAR
STARTCHAR numbersign
ENCODING 35
SWIDTH 703 0
DWIDTH 13 0
BBX 13 13 0 0
BITMAP
00000A50078000
00003FD00EF200
00008FF14FF400
0145DFE9CFF710
08FFFFFFFFFFC0
07FFFEACFF9730
001CF908FD0000
156FFCAEFE8100
7FFFFFFFFFF800
4EFFD8DFE64000
05FF52FF900000
0AFE16FF300000
05E803DB000000
ENDCHAR
STARTCHAR dollar
ENCODING 36
SWIDTH 493 0
DWIDTH 9 0
BBX 10 15 0 -1
BITMAP
0000001000
000005C000
00000BF400
00004FFDA2
028EFFFFFA
3FFFE97886
6FFFD70000
19DEFF8000
00002AF200
00003DF400
047BFFC000
0CFFFA1000
06EFE10000
00AF900000
0005000000
ENDCHAR
STARTCHAR percent
ENCODING 37
SWIDTH 643 0
DWIDTH 12 0
BBX 12 13 0 0
BITMAP
0004A1000037
007FF30004EA
06FFFA004EF7
0EF6FF13FFA0
1FFFFE4EF900
07CB85EF8000
00003EF80000
0004EF82C600
005FF73EFB00
04FF72EFEF30
0DF808FBBF80
3FF308FFFF50
2D90019A7200
ENDCHAR
STARTCHAR ampersand
ENCODING 38
SWIDTH 599 0
DWIDTH 11 0
BBX 11 10 0 0
BITMAP
000005C10000
00001EF80000
08FB7FF80000
6FFFFFFA5100
DFCFFFFFFD30
7FFFFFFEDA30
0258FFB00000
0005FF700000
0005FF200000
000032000000
ENDCHAR
STARTCHAR quotesingle
ENCODING 39
SWIDTH 265 0
DWIDTH 5 0
BBX 5 10 1 4
BITMAP
004000
04FD20
09FF60
0EFE10
2FFA00
6FF600
7FF300
8FD000
1E8000
010000
ENDCHAR
STARTCHAR parenleft
ENCODING 40
SWIDTH 361 0
DWIDTH 7 0
BBX 9 20 0 -4
BITMAP
0000000110
0000006F60
000007FF60
00009FFF30
0007FFF700
003FFF4000
00DFF60000
05FFD00000
09FF400000
0BFE100000
1FFA000000
5FF7000000
6FF5000000
6FF6000000
6FF8000000
3FFB000000
0EFE000000
05FC000000
008F100000
0002000000
ENDCHAR
STARTCHAR parenright
ENCODING 41
SWIDTH 361 0
DWIDTH 7 0
BBX 9 20 -3 -4
BITMAP
0000010000
00000BC000
000008FA00
000009FF40
000006FF80
000003FFB0
000001FFB0
000001FFB0
000002FFA0
000005FF60
00000AFF10
00001EFE00
00008FFA00
0002EFF300
001CFF8000
03DFFC0000
0DFFD20000
1FFC100000
1FB1000000
0200000000
ENDCHAR
STARTCHAR asterisk
ENCODING 42
SWIDTH 673 0
DWIDTH 12 0
BBX 12 10 1 4
BITMAP
000010000000
000AE207D700
004FFC9FE200
000BFFFF7000
489DFFFFFEA2
9FFFFFFFFFE7
2BADFFFF7100
002EFBEFB000
00BFF35FC000
007A50066000
ENDCHAR
STARTCHAR plus
ENCODING 43
SWIDTH 579 0
DWIDTH 10 0
BBX 10 10 0 0
BITMAP
0000170000
0000AF7000
0001FF9000
0005FFA000
7CEFFFFFA1
9FFFFFFFF6
2B9FFE4310
002FFB0000
004FF60000
0018800000
ENDCHAR
STARTCHAR comma
ENCODING 44
SWIDTH 204 0
DWIDTH 4 0
BBX 5 7 -2 -4
BITMAP
026100
08FE10
0CFF20
2FFD00
BFF500
7E9000
010000
ENDCHAR
STARTCHAR hyphen
ENCODING 45
SWIDTH 609 0
DWIDTH 11 0
BBX 10 4 0 3
BITMAP
0000111000
5BDFFFFFC2
7FFFFFFFF9
1A97554320
ENDCHAR
STARTCHAR period
ENCODING 46
SWIDTH 228 0
DWIDTH 4 0
BBX 4 4 -1 -1
BITMAP
0983
6FF9
3FF5
0540
ENDCHAR
STARTCHAR slash
ENCODING 47
SWIDTH 401 0
DWIDTH 7 0
BBX 10 14 -1 -1
BITMAP
0000000085
00000008F8
0000005FF7
000002EFC1
00001CFD20
0000AFE300
0006FF5000
005FF80000
04FFA00000
1EFC000000
6FF2000000
9FD0000000
6FA0000000
0210000000
ENDCHAR
STARTCHAR zero
ENCODING 48
SWIDTH 686 0
DWIDTH 12 0
BBX 12 15 0 -1
BITMAP
000000084000
000001CFE300
00001BFFFA00
0001DFFFF800
001CFFFFFC00
00AFFFAAFF40
05FFF601FFB0
0DFF80009FF2
4FFE00004FF5
9FF700008FF9
BFF4004BFFF8
AFFEDFFFFFE3
4FFFFFFFFD30
07FFFFFD6100
002555100000
ENDCHAR
STARTCHAR one
ENCODING 49
SWIDTH 322 0
DWIDTH 6 0
BBX 5 15 0 -1
BITMAP
001000
04E500
06FF40
05FF90
01FFC0
00EFD0
01FFD0
04FFB0
09FF80
0EFF40
4FFF10
7FFA00
8FF500
3FD200
011000
ENDCHAR
STARTCHAR two
ENCODING 50
SWIDTH 650 0
DWIDTH 12 0
BBX 12 14 1 0
BITMAP
000010000000
4BEFFEC70000
BFFFFFFF8000
AFFFFFFFF600
289535FFFB00
00003EFFF600
0006FFFF8000
008FFFE60000
07FFFE200000
4FFFC2000330
CFFE679CEFF4
DFFFFFFFFFFA
BFFFFFFFFE93
3CFFCA752000
ENDCHAR
STARTCHAR three
ENCODING 51
SWIDTH 561 0
DWIDTH 10 0
BBX 11 13 -1 0
BITMAP
00258ACDDA00
0BFFFFFFFF70
1FFFFFFFFFD0
2FFFFFFFFF60
034AFFFFC300
000EFFFD1000
000EFFFFE200
0003AFFFFC00
0000016EFF40
0032359FFF40
04FFFFFFFD10
08FFFFFFA200
05CDCA720000
ENDCHAR
STARTCHAR four
ENCODING 52
SWIDTH 582 0
DWIDTH 10 0
BBX 11 15 0 -1
BITMAP
000000140000
0000008E2000
083000BF8000
1FD000DF9000
1FF500EF7000
0DFA01FFC900
0AFFFFFFFF40
08FFFFFFFD20
01BFFFFC5000
00007FF40000
00008FE00000
0000BFA00000
00009FE20000
00004FF50000
000006710000
ENDCHAR
STARTCHAR five
ENCODING 53
SWIDTH 580 0
DWIDTH 10 0
BBX 12 13 0 0
BITMAP
00018A000000
006EFFDABCD3
07FFFFFFFFFA
0EFFFFFFFFFA
1FFFFEA75310
1EFFFB200000
06FFFFE30000
0029EFFD1000
000007FF7000
044348FFD000
1FFFFFFFC000
0AFFFFFE3000
018BDB930000
ENDCHAR
STARTCHAR six
ENCODING 54
SWIDTH 500 0
DWIDTH 9 0
BBX 10 14 -1 -1
BITMAP
00001AF700
0000CFFD00
0007FFFD10
001EFF6000
006FF80000
00DFE10000
05FFA29A20
09FF6FFFD0
0EFBDFFFF6
2FF8FFFFF7
2FFFFFFFE1
1FFFFFFD20
08FFEA6000
0023100000
ENDCHAR
STARTCHAR seven
ENCODING 55
SWIDTH 576 0
DWIDTH 10 0
BBX 12 13 0 0
BITMAP
3CEEDA720000
AFFFFFFE1000
BFFFFFFFB000
354469FFE000
0000009FD000
000000DFD430
028ADFFFFFF1
0BFFFFFFFFD1
0AFFFFFB7410
0169FFD00000
000BFF300000
000EFA000000
000BE3000000
ENDCHAR
STARTCHAR eight
ENCODING 56
SWIDTH 537 0
DWIDTH 10 0
BBX 10 15 1 -1
BITMAP
0001100000
03CFFB0880
3EFFFF5EF2
AFFEFF9CF6
DFC08EDFF7
CFE35CFFE1
6FFFFFFD20
0DFFFF8100
2FFFFA0000
7FECFE1000
8FA1EF5000
7FFCFF7000
2FFFFF4000
06EFF70000
0002100000
ENDCHAR
STARTCHAR nine
ENCODING 57
SWIDTH 529 0
DWIDTH 10 0
BBX 10 15 0 -1
BITMAP
0000001000
0002AFF600
006EFFFF40
05FFFEFFD0
0DFF94AFF1
3FFFFFFFF8
3FFFFFFFF5
0AFFECFF80
001202FF20
000006FE00
000009FB00
00000BF800
00000DF600
00000EE100
0000022000
ENDCHAR
STARTCHAR colon
ENCODING 58
SWIDTH 241 0
DWIDTH 4 0
BBX 5 9 -1 -1
BITMAP
02B810
06FF70
03FF60
006400
000000
098300
6FF900
3FF500
054000
ENDCHAR
STARTCHAR semicolon
ENCODING 59
SWIDTH 245 0
DWIDTH 4 0
BBX 6 12 -2 -4
BITMAP
001A92
005FF8
002FF7
000640
000000
005300
00FF90
04FFA0
09FF60
3FFD00
2CE300
001000
ENDCHAR
STARTCHAR less
ENCODING 60
SWIDTH 625 0
DWIDTH 11 0
BBX 11 9 0 0
BITMAP
000000004840
0000004CFFF0
00038DFFFE70
6ADFFFFD7100
EFFFF9300000
5EFFFD720000
028EFFFF6000
00006AEFF400
000000048200
ENDCHAR
STARTCHAR equal
ENCODING 61
SWIDTH 586 0
DWIDTH 11 0
BBX 10 7 0 1
BITMAP
09BDEFFFE7
1FFFFFFFFC
0986544320
0134667710
BFFFFFFFC0
BFFDBCA930
1200000000
ENDCHAR
STARTCHAR greater
ENCODING 62
SWIDTH 634 0
DWIDTH 11 0
BBX 12 9 -1 0
BITMAP
007610000000
00CFFC820000
002DFFFFB400
00005AFFFFB0
000027DFFFF4
005CFFFFE980
4DFFFE940000
AFFD61000000
175000000000
ENDCHAR
STARTCHAR question
ENCODING 63
SWIDTH 556 0
DWIDTH 10 0
BBX 11 15 1 -1
BITMAP
002331000000
07FFFFEB7200
5FFFFFFFFE10
5FFEFFFFFF10
042003DFFE00
00003CFFF800
0007FFFF9000
00AFFFB20000
05FFD5000000
08FB00000000
001000000000
7A3000000000
FFC000000000
CFB000000000
360000000000
ENDCHAR
STARTCHAR at
ENCODING 64
SWIDTH 732 0
DWIDTH 13 0
BBX 14 15 -1 -1
BITMAP
00000001430000
00000009FFA100
0000002EFFFB00
000004DFE8EF40
00007FFB105FD1
001AFF916B8BF7
01CFF84DFF94FB
08FF87FFEF52FC
0EFB4FF5AF34FA
1FF36FFCEFBDE2
0FC01CFFFFFC20
0CFA2035410000
02DFFDBAABD500
0017EFFFFFFD00
00000245565100
ENDCHAR
STARTCHAR A
ENCODING 65
SWIDTH 702 0
DWIDTH 13 0
BBX 14 14 -1 -1
BITMAP
00000007C71000
0000005FFF5000
00003CFFFF8000
0000CFFFFFA000
0005FFFDFFD000
000CFFE2EFF100
003FFF50BFFA50
00BFFE8AEFFFF7
03FFFFFFFFFFB1
0AFFABFFEFFF20
2FFF21420CFF40
3FFC0000BFFE10
0CE500003FE400
00000000010000
ENDCHAR
STARTCHAR B
ENCODING 66
SWIDTH 686 0
DWIDTH 12 0
BBX 13 15 -1 -1
BITMAP
00000001200000
0037ADFFFF8000
1BFFFFFFFFFA00
6FFFFEA79FFF20
0CFDF704EFFE10
0065FFCFFFF600
0007FFFFFF7000
000BFFFFFFA100
000EFFC879FC10
005FFC0004EF80
00AFF7029EFFB0
00EFF9BFFFFF50
01FFFFFFFFD500
00AFEFFEA50000
00041451000000
ENDCHAR
STARTCHAR C
ENCODING 67
SWIDTH 611 0
DWIDTH 11 0
BBX 11 13 0 0
BITMAP
00000019D600
000018EFFF60
0006DFFFFF70
009FFFFFE910
0AFFFFC40000
7FFFE7000000
EFFD20000000
FFE100000000
DFB000000000
9FF853211000
3FFFFFFFF800
04EFFFFFFF10
0026ADFED500
ENDCHAR
STARTCHAR D
ENCODING 68
SWIDTH 588 0
DWIDTH 11 0
BBX 11 14 0 -1
BITMAP
0BB500000000
0BFFD8100000
0CFFFFD40000
0EF8BFFF6000
0BF7019FF400
0AF90008FE00
0AF90001EF30
0EF8003CFF40
3FF72AFFFC00
7FFEFFFFC100
AFFFFFF70000
9FFFE9200000
3FD710000000
010000000000
ENDCHAR
STARTCHAR E
ENCODING 69
SWIDTH 626 0
DWIDTH 11 0
BBX 12 14 0 -1
BITMAP
00000379BDC2
017BEFFFFFFA
0AFFFFFFFFB2
08FFFFD84100
04FFE2121000
02FFFFFFB100
09FFFFFFF900
1EFFFFFE7000
8FFC01000000
CFF501248600
BFFFFFFFFF70
8FFFFFFFFF40
1AFFFEEC8200
001210000000
ENDCHAR
STARTCHAR F
ENCODING 70
SWIDTH 575 0
DWIDTH 10 0
BBX 14 15 -1 -1
BITMAP
00000000002300
00000159DFFFC1
0015BFFFFFFFFB
00DFFFFFFC9874
00CFFFD4000000
002CFF80000000
000AFF30000000
09BEFF9BDE5000
4FFFFFFFFFA000
1EFFFFFECA1000
05FFC520000000
08FF4000000000
08FF0000000000
02ED0000000000
00010000000000
ENDCHAR
STARTCHAR G
ENCODING 71
SWIDTH 789 0
DWIDTH 14 0
BBX 15 13 0 0
BITMAP
00000002CC300000
0000018FFFF20000
00003DFFFFF20000
0005EFFFF9200000
006FFFFB20000000
05FFFF6006A20000
1EFFE4004FFF9100
9FFF40001EFFFD20
EFF6000009FFFFD0
CFD3248BEFFFFF90
9FFFFFFFFFFFE700
2FFFFFFFFEA61000
03CFEDA840000000
ENDCHAR
STARTCHAR H
ENCODING 72
SWIDTH 695 0
DWIDTH 13 0
BBX 14 15 -1 -1
BITMAP
00000000000200
00053000008C00
000EC00000CF40
003FF80000DFD0
005FFC0001FFF1
007FFA0003FFF2
009FF80005FFF1
00CFF5037DFFD0
02FFFDFFFFFFA0
05FFFFFFFFFF50
0AFFFFFABFFD00
0EFFF9109FFB00
1EFFB0007FFA00
08FE20000CB200
00310000000000
ENDCHAR
STARTCHAR I
ENCODING 73
SWIDTH 515 0
DWIDTH 9 0
BBX 13 15 -1 -1
BITMAP
00000000110000
0008ADFFFFEA00
000EFFFFFFFF90
000AFEFFEA9610
000032FFA00000
000005FF600000
00000AFF100000
00001EFC000000
00006FF8000000
0000CFF3000000
0004FFC1000000
48BDFFFF600000
8FFFFFFFE00000
3FFCAA87200000
02100000000000
ENDCHAR
STARTCHAR J
ENCODING 74
SWIDTH 668 0
DWIDTH 12 0
BBX 16 13 -1 0
BITMAP
00025789ABBBB940
00AFFFFFFFFFFFE2
00BFFFFFFFFFFFF4
004EC743CFF41220
00000000EFF10000
00000002FFB00000
00000006FF800000
0000000BFF400000
0000002FFE000000
065101BFF9000000
4FFEEFFFF3000000
2FFFFFFF70000000
058ADEB400000000
ENDCHAR
STARTCHAR K
ENCODING 75
SWIDTH 776 0
DWIDTH 14 0
BBX 15 14 0 -1
BITMAP
0004E91000030000
000DFF8002AFA100
006FFF605EFFF700
00AFFD19FFFFD200
01EFF9CFFFF81000
06FFFFFFFC300000
0CFFFFFFA1000000
1FFFFFFF10000000
4FFFFFFFC5100000
9FFFF7BFFFFFFB10
BFFF8009FFFFFF30
7FFC00004AEFF800
2ED2000000011000
0110000000000000
ENDCHAR
STARTCHAR L
ENCODING 76
SWIDTH 632 0
DWIDTH 11 0
BBX 11 15 0 -1
BITMAP
000100000000
000EC6000000
003FFF100000
008FFD000000
00DFF7000000
04FFF2000000
09FFB0000000
1EFF60000000
4FFE10000000
9FFA00000000
CFF9489A9200
BFFFFFFFFF90
7FFFFFFFFFE0
1CFFEA767840
002200000000
ENDCHAR
STARTCHAR M
ENCODING 77
SWIDTH 973 0
DWIDTH 18 0
BBX 18 15 0 -1
BITMAP
000002000000000000
00006F810000009800
0002FFFC000006FFA0
000BFFFF40006FFFF3
004FFFFF4008FFFFF2
00BFFFFF63BFFFFFE0
03FFFFFFFFFFFFFFD0
0AFFFFFFFFFFEAFFC0
1FFF9AFFFFF919FF80
7FFF319ED9300DFF70
CFFD000000000FFF40
DFF5000000001FFD00
BFD0000000000EF800
6F7000000000068100
030000000000000000
ENDCHAR
STARTCHAR N
ENCODING 78
SWIDTH 684 0
DWIDTH 12 0
BBX 14 13 -1 0
BITMAP
00000C60001E50
00006FF9006FF6
0000DFFF10CFFA
0005FFFE00EFF5
000CFFFA02FFE0
005FFFF705FFB0
00CFFFF70BFF80
04FFFFF74FFF70
0BFFFFFCEFFF30
2FFFE8FFFFFD00
1FFF61DFFFF400
0AFF102DFF8000
02D80002850000
ENDCHAR
STARTCHAR O
ENCODING 79
SWIDTH 744 0
DWIDTH 13 0
BBX 13 15 0 -1
BITMAP
00000000400000
0000003BFB0000
000003EFFF8000
00006FFFFF7000
0007FFFFFFA000
007FFFEABFF300
04FFFC102FFB00
0DFFB10008FF30
5FFE100002FF70
AFF5000007FFB0
CFF30137DFFF90
AFFFFFFFFFFE30
3FFFFFFFFFB200
04DFFFEC820000
00011200000000
ENDCHAR
STARTCHAR P
ENCODING 80
SWIDTH 639 0
DWIDTH 12 0
BBX 12 15 0 -1
BITMAP
000000121000
00004DFFFC40
0005FFFFFFF2
001EFFFFFFF9
005FFD769FFE
03DFF2049FFF
0DFFFBEFFFFD
2FFFFFFFFFE4
3FFFFFFFE920
0DFFDA740000
0DFF30000000
1FFF20000000
4FFE00000000
1DF800000000
022000000000
ENDCHAR
STARTCHAR Q
ENCODING 81
SWIDTH 744 0
DWIDTH 13 0
BBX 13 16 0 -2
BITMAP
00000001100000
0000007FF80000
000000BFFFA000
000009FFFFF300
0002CFFFFFFC00
003DFFFA17FF60
04FFFF6000DFC0
2EFFE47720AFE0
AFFE30DFE6FFD0
EFF5004FFFFFA0
EFB0149EFFFE20
DFDBFFFFFFF500
9FFFFFFFEFF900
18EFFEA50DFE00
0013100005EA00
00000000001000
ENDCHAR
STARTCHAR R
ENCODING 82
SWIDTH 646 0
DWIDTH 12 0
BBX 12 15 0 -1
BITMAP
000000100000
000008FC1000
00007FFFD200
0004FFFFFA00
029EFFAFFF20
07FFF709FF70
0AFFB38EFF80
0EFFFFFFFE30
3FFFFFFFB200
5FFFFD720000
7FFFFE700000
AFFEFFFEB741
9FF19FFFFFF7
4F90039EFFF9
010000015892
ENDCHAR
STARTCHAR S
ENCODING 83
SWIDTH 576 0
DWIDTH 10 0
BBX 13 15 0 -1
BITMAP
00000000120000
000016ADFFE400
005CFFFFFFFD00
2DFFFFFFFFFF30
AFFFFA41222200
BFFFFE71000000
6FFFFFFA000000
02579DFF400000
0000006FC00000
000001BFE00000
00016DFFA00000
09BFFFFE200000
0FFFFFC2000000
0CFFC500000000
01310000000000
ENDCHAR
STARTCHAR T
ENCODING 84
SWIDTH 607 0
DWIDTH 11 0
BBX 14 15 0 -1
BITMAP
00000000001210
223468CBDEFFF4
EFFFFFFFFFFFFE
CFFFFFFFFFDCB7
4CCBBFFE200000
00008FF9000000
0001EFF3000000
0006FFC0000000
000BFF50000000
002FFD00000000
005FF700000000
006FF200000000
003FF500000000
000BFC00000000
00004200000000
ENDCHAR
STARTCHAR U
ENCODING 85
SWIDTH 695 0
DWIDTH 13 0
BBX 13 13 0 0
BITMAP
00000000005C10
01700000009F50
07F8000000DFA0
0AFF100001FFE0
0CFF500006FFB0
0FFF30000DFF80
1FFF00008FFF20
1FFF0008FFF900
1FFF35CFFFC100
0EFFFFFFFC1000
08FFFFFFE20000
02FFFFFB200000
004BCB40000000
ENDCHAR
STARTCHAR V
ENCODING 86
SWIDTH 583 0
DWIDTH 11 0
BBX 11 14 1 -1
BITMAP
7B0000009E60
CF700007FFB0
CFE1004FFF90
AFF401EFFE20
AFF60AFFF300
AFF75FFF6000
8FFADFF90000
6FFFFFE10000
4FFFFF600000
1FFFFB000000
0DFFE3000000
08FF90000000
02DE30000000
000100000000
ENDCHAR
STARTCHAR W
ENCODING 87
SWIDTH 994 0
DWIDTH 18 0
BBX 19 14 0 -1
BITMAP
0008500000000000A900
005FF40002910002FF50
00DFF7000CFB0009FFA0
04FFF2007FFF200EFF80
08FFC002FFFE005FFF20
0CFF700AFFFB00CFFA00
1FFF305FFFF704FFF300
4FFE02EFFFF60CFFC000
7FFB2DFFFFF8BFFF5000
9FFDEFFFCDFFFFFC0000
4FFFFFFB15FFFFF30000
0BFFFF9000CFFF700000
019CA300002EF6000000
00000000000100000000
ENDCHAR
STARTCHAR X
ENCODING 88
SWIDTH 623 0
DWIDTH 11 0
BBX 14 14 -1 -1
BITMAP
004B4000000740
008FF70003DFD0
008FFF507FFFF3
003EFFECFFFF80
0005FFFFFFC200
0000AFFFF80000
0003EFFFA00000
003EFFFFF20000
02EFFFDFFC0000
0BFFF52EFF8000
1FFF5007FFD000
3FF80000EFE000
1EF200006E7000
03400000010000
ENDCHAR
STARTCHAR Y
ENCODING 89
SWIDTH 493 0
DWIDTH 9 0
BBX 11 15 0 -1
BITMAP
010000000200
0DB30004EE30
0EFD003FFFC0
0CFF21EFFE40
0AFF5AFFF400
07FFDFFF6000
03FFFFFA0000
00BFFFE10000
004FFF700000
00BFFC000000
04FFF4000000
0BFFB0000000
2FFF20000000
1EFA00000000
028100000000
ENDCHAR
STARTCHAR Z
ENCODING 90
SWIDTH 664 0
DWIDTH 12 0
BBX 14 14 -1 -1
BITMAP
0003BDDCCCBC70
0005FFFFFFFFF4
0001EFFFFFFFF6
00002422CFFFC1
0000002DFFF800
000007EFFF7000
0002CFFFF60000
006EFFFC300000
08FFFF80000000
0EFFE40159E600
2FFFD8CFFFFF30
1EFFFFFFFFE700
06FFFFFDA51000
004AA730000000
ENDCHAR
STARTCHAR bracketleft
ENCODING 91
SWIDTH 387 0
DWIDTH 7 0
BBX 14 20 -1 -3
BITMAP
00000001233200
00005CEFFFFFE3
00006FFFFFFFFA
00007FF9877530
0000BFE0000000
0000EFA0000000
0003FF70000000
0007FF30000000
000BFE00000000
001FFB00000000
004FF700000000
008FF300000000
00DFE100000000
02FFA000000000
06FF6000000000
0BFF1000000000
1FFC1232000000
5FFFFFFE500000
6FFFFFFF900000
1DC96743000000
ENDCHAR
STARTCHAR backslash
ENCODING 92
SWIDTH 352 0
DWIDTH 6 0
BBX 5 15 1 -1
BITMAP
300000
DB0000
DF7000
AFA000
8FC000
4FE000
1FF100
0EF400
0BF700
08FA00
06FC00
05FD00
05FF10
02FF20
004400
ENDCHAR
STARTCHAR bracketright
ENCODING 93
SWIDTH 403 0
DWIDTH 7 0
BBX 13 20 -5 -3
BITMAP
00000023453100
00009EFFFFFD20
0000AFFFFFFF60
00004C966BFF30
000000000AFE00
000000000DFB00
000000002FF800
000000007FF400
00000000BFF000
00000000EFB000
00000003FF7000
00000007FF3000
0000000CFF0000
0000001FFB0000
0000006FF60000
000000BFF20000
000123FFC00000
9BDFFFFF800000
EFFFFFFF200000
8DB76632000000
ENDCHAR
STARTCHAR asciicircum
ENCODING 94
SWIDTH 518 0
DWIDTH 9 0
BBX 9 11 0 3
BITMAP
0000033000
00001FE200
00007FF700
0001EFFA00
000BFFFD00
005FFCFE00
02EFC5FF20
1CFF23FF10
9FF701FF20
EFA0009F30
7A10001910
ENDCHAR
STARTCHAR underscore
ENCODING 95
SWIDTH 708 0
DWIDTH 13 0
BBX 15 4 -2 -1
BITMAP
0000222223200000
9DEFFFFFFFFFD810
7FFFFFFFFFFFFF80
0797544444432000
ENDCHAR
STARTCHAR grave
ENCODING 96
SWIDTH 754 0
DWIDTH 14 0
BBX 6 6 5 8
BITMAP
040000
5FB100
BFFC10
2CFFB0
00AFF6
0007D4
ENDCHAR
STARTCHAR a
ENCODING 97
SWIDTH 581 0
DWIDTH 10 0
BBX 12 12 -1 -1
BITMAP
000000672000
000005FFB000
0002DFFFD000
0009FFFFF100
002FFF8FF400
008FF71FFA30
01EFF8AFFFF4
07FFEFFFFF90
0DFB5CA9FF40
4FF5001BFF40
1ED1000AF900
011000002000
ENDCHAR
STARTCHAR b
ENCODING 98
SWIDTH 573 0
DWIDTH 10 0
BBX 11 12 -1 -1
BITMAP
00369BCC8100
1CFFFFFFFC00
5FFFD86DFF30
09ECD4BFFD10
000DFFFFE300
002FFFFFC100
006FFC88DD10
00AFD001CF90
01FF839EFFA0
04FFFFFFFC10
02FFFFEB5000
003355100000
ENDCHAR
STARTCHAR c
ENCODING 99
SWIDTH 513 0
DWIDTH 9 0
BBX 9 12 0 -1
BITMAP
0000018810
00007EFFA0
004DFFFFA0
07FFFFC700
4FFFD30000
CFF8000000
FF80000000
DF40000000
8FEC977500
1DFFFFFF50
008CFFFD20
0000011000
ENDCHAR
STARTCHAR d
ENCODING 100
SWIDTH 497 0
DWIDTH 9 0
BBX 9 12 0 -1
BITMAP
0950000000
0EFE910000
1EFFFE4000
0FC39FF600
0DF002EE20
0DF1005F80
1FF003DF90
4FE4BFFE20
9FFFFFD300
AFFFE80000
6FD6100000
0200000000
ENDCHAR
STARTCHAR e
ENCODING 101
SWIDTH 521 0
DWIDTH 9 0
BBX 10 12 0 -1
BITMAP
0000147992
039CFFFFFC
0DFFFFFEA2
0AFFA72000
05FFA9A200
0AFFFFFE10
2FFEFEC400
AFF2000000
CFD678AD50
AFFFFFFFC0
3EFFFFD920
0133110000
ENDCHAR
STARTCHAR f
ENCODING 102
SWIDTH 455 0
DWIDTH 8 0
BBX 12 12 -1 -1
BITMAP
0000027ACE90
0038DFFFFFF7
02FFFFEA7651
01DFFB000000
001FF6000000
079FF88A7000
4FFFFFFFE100
1DFFFDB83000
08FD10000000
0BF800000000
06F600000000
002000000000
ENDCHAR
STARTCHAR g
ENCODING 103
SWIDTH 652 0
DWIDTH 12 0
BBX 13 12 0 -1
BITMAP
0000003B400000
000019FFF30000
0003DFFFE30000
005FFFE7100000
04FFFB10500000
2EFF8009FD5000
AFF80007FFFA00
EFB00016FFFF60
CFB89DFFFFFD10
7FFFFFFFFC6100
09FFFCA6100000
00110000000000
ENDCHAR
STARTCHAR h
ENCODING 104
SWIDTH 582 0
DWIDTH 10 0
BBX 12 12 -1 -1
BITMAP
000400001C00
004F30005F60
008FC0007FE0
00AFE000AFF1
00CFC000BFF1
00FF9026EFD0
04FFDDFFFFA0
08FFFFFFFF60
0DFFFA5CFE00
1FFF400CFE00
0BFA0006F700
013000000000
ENDCHAR
STARTCHAR i
ENCODING 105
SWIDTH 320 0
DWIDTH 6 0
BBX 4 12 1 -1
BITMAP
02A1
09F6
0EF9
2FFB
6FF5
AFF1
CFC0
DFA0
EFA0
BFB0
5F90
0300
ENDCHAR
STARTCHAR j
ENCODING 106
SWIDTH 534 0
DWIDTH 10 0
BBX 13 12 -1 -1
BITMAP
00024567888610
01DFFFFFFFFF90
00EFFFEFFECDA0
0048301FF60000
0000004FF30000
0000008FE00000
000000CFA00000
000004FF500000
2B956DFE000000
4FFFFFF7000000
09BEFD60000000
00001000000000
ENDCHAR
STARTCHAR k
ENCODING 107
SWIDTH 645 0
DWIDTH 12 0
BBX 12 12 0 -1
BITMAP
000970000100
005FF7007E90
00CFF42CFFF4
02FFC5EFFF70
08FFDFFFB200
0DFFFFF80000
3FFFFFC00000
6FFFFFFB5341
BFFF47FFFFFC
9FF7004CFFFA
4FA000003550
030000000000
ENDCHAR
STARTCHAR l
ENCODING 108
SWIDTH 533 0
DWIDTH 10 0
BBX 10 12 0 -1
BITMAP
005A500000
00AFF20000
00EFD00000
05FF700000
0BFF200000
1FFB000000
6FF6000000
AFF1000000
CFF8CDEB40
AFFFFFFFF1
3FFFDA9A91
0242000000
ENDCHAR
STARTCHAR m
ENCODING 109
SWIDTH 814 0
DWIDTH 15 0
BBX 15 12 0 -1
BITMAP
0001C50000017100
000BFF80000AFC10
005FFFE0009FFF60
00DFFFE01BFFFF40
05FFFFFBEFFFFF10
0CFFFFFFFFEDFF10
3FFD8FFFFA2CFC00
9FF707A8301FFB00
DFE20000002FF700
CF900000002FF200
8F300000000B7000
1300000000000000
ENDCHAR
STARTCHAR n
ENCODING 110
SWIDTH 564 0
DWIDTH 10 0
BBX 12 12 -1 -1
BITMAP
000074000830
0001EF701FF4
0008FFD05FF7
001EFFA08FF1
007FFF60BFC0
01EFFF51EFA0
06FFFF59FF80
0DFFFFDFFF40
3FFF4FFFFD00
0DF906FFF300
05E4005B4000
001000000000
ENDCHAR
STARTCHAR o
ENCODING 111
SWIDTH 628 0
DWIDTH 11 0
BBX 11 12 0 -1
BITMAP
000002AD2000
00002EFFC000
0005FFFFB000
006FFFFFF200
04FFF62BF900
1DFE4003FF20
6FF50000BF60
BFB00005EFA0
CFC668DFFF70
8FFFFFFFF900
0AFFFFD83000
001231000000
ENDCHAR
STARTCHAR p
ENCODING 112
SWIDTH 524 0
DWIDTH 9 0
BBX 10 12 0 -1
BITMAP
00019CDA40
002EFFFFF3
009FFFFFFA
01EF922BFE
1DFF69DFFD
5FFFFFFFF6
6FFFFFFB40
2FFC841000
3FF6000000
6FF4000000
4FE1000000
0420000000
ENDCHAR
STARTCHAR q
ENCODING 113
SWIDTH 625 0
DWIDTH 11 0
BBX 11 12 0 -1
BITMAP
000007C91000
00000CFFD100
0001AFFFF600
002CFFDBFE10
04EFFA10BF80
3EFF84306FB0
BFF70DF8CFB0
FFA004FFFF70
EF559EFFFB00
CFFFFFFFF800
3DFFFC78FD00
00320001CB00
ENDCHAR
STARTCHAR r
ENCODING 114
SWIDTH 541 0
DWIDTH 10 0
BBX 10 12 0 -1
BITMAP
00004C6000
0003FFF800
002DFFFF30
08EFE5FF90
0CFF33DFD0
1FFEDFFF90
4FFFFFE700
7FFFE50000
9FFFFB5100
BFCBFFFFD6
6F506CFFFB
0200003794
ENDCHAR
STARTCHAR s
ENCODING 115
SWIDTH 463 0
DWIDTH 8 0
BBX 11 12 0 -1
BITMAP
000037ACC500
027DFFFFFE10
5FFFFFCDDD30
BFFFB1000000
AFFFFD300000
169BEFC00000
000008F60000
00002DF70000
0249FFE20000
1FFFFE400000
1FFF92000000
034100000000
ENDCHAR
STARTCHAR t
ENCODING 116
SWIDTH 479 0
DWIDTH 9 0
BBX 12 12 0 -1
BITMAP
0123598ACDB1
EFFFFFFFFFF9
CFFFFFFCA983
2766FF800000
0007FF200000
000EFB000000
004FF4000000
00AFD0000000
00CF60000000
00BF40000000
006FD0000000
000430000000
ENDCHAR
STARTCHAR u
ENCODING 117
SWIDTH 584 0
DWIDTH 11 0
BBX 11 11 0 0
BITMAP
000000000910
025000003F70
09F300006FC0
0CFA0000AFD0
0EFB0001FFB0
1FF8000AFF50
1FF7009FFC00
1FFB7DFFD300
0CFFFFFE3000
07FFFFE40000
01AEE8100000
ENDCHAR
STARTCHAR v
ENCODING 118
SWIDTH 485 0
DWIDTH 9 0
BBX 9 12 1 -1
BITMAP
5500000A70
CE2000AFF0
BF9007FFC0
AFC03FFE30
AFE0CFF500
9FF8FF8000
7FFFFD0000
5FFFF40000
2FFFA00000
0DFE100000
07FA000000
0020000000
ENDCHAR
STARTCHAR w
ENCODING 119
SWIDTH 825 0
DWIDTH 15 0
BBX 16 12 0 -1
BITMAP
0015000000000380
00BF600083000AF6
03FF9006FE102FFA
09FF401EFF208FF6
0DFE009FFE00DFE0
2FF904FFFA05FF80
5FF51DFFF81DFF20
8FF4CFFFFBCFF900
8FFEFFE5FFFFE200
2FFFFD209FFF6000
05DD81001DF70000
0000000001100000
ENDCHAR
STARTCHAR x
ENCODING 120
SWIDTH 506 0
DWIDTH 9 0
BBX 12 12 -1 -1
BITMAP
005500000330
00CF90008FD0
00CFF83CFFE1
004FFFFFFC40
0007FFFF8000
0007FFF70000
007FFFFB0000
05FFFCFF6000
0EFE41DFF100
3FF5005FF400
2FC0000CE100
053000001000
ENDCHAR
STARTCHAR y
ENCODING 121
SWIDTH 400 0
DWIDTH 7 0
BBX 10 12 0 -1
BITMAP
0B60003C60
0EF503EFF1
0DF91EFF80
0AFCAFF900
07FFFFB000
02FFFF2000
00AFF80000
02EFD10000
09FF500000
1FFC000000
2FF4000000
0460000000
ENDCHAR
STARTCHAR z
ENCODING 122
SWIDTH 547 0
DWIDTH 10 0
BBX 12 12 -1 -1
BITMAP
00069A888850
000CFFFFFFF3
0006FECEFFF4
0000006FFF70
000019FFE400
0005EFFE3000
019FFFB20000
0BFFE6001100
1FFF438BFC20
2FFFFFFFFE20
0AFFFFEB6100
017A84000000
ENDCHAR
STARTCHAR braceleft
ENCODING 123
SWIDTH 448 0
DWIDTH 8 0
BBX 15 20 0 -3
BITMAP
0000000122331000
000009DFFFFFFA10
00000CFFFFFFFF40
00000DFD87765200
00001FF800000000
00005FF500000000
00009FF100000000
0018EFD000000000
39EFFF7000000000
9FFFA20000000000
5FFF910000000000
07FFFC0000000000
005FFA0000000000
007FF50000000000
00CFF10000000000
02FFB00000000000
06FF622310000000
0BFFFFFFC2000000
0CFFFFFFF4000000
06EB866420000000
ENDCHAR
STARTCHAR bar
ENCODING 124
SWIDTH 332 0
DWIDTH 6 0
BBX 6 15 0 -1
BITMAP
000010
0000D6
0005FC
0009FD
000EF7
003FF1
009FA0
00EF50
03FF10
09FB00
1EF700
7FE100
DFA000
DF5000
130000
ENDCHAR
STARTCHAR braceright
ENCODING 125
SWIDTH 481 0
DWIDTH 9 0
BBX 15 20 -6 -3
BITMAP
0000000334530000
00000CEFFFFFB100
00000DFFFFFFF300
000006C866CFF100
0000000000DFC000
0000000001FF9000
0000000006FF5000
000000000AFF1000
000000001EFF4000
000000002EFFF700
0000000001AFFF20
0000000018FFFF30
00000000EFFE9400
00000004FFB20000
00000009FF400000
0000000DFE000000
0000125FFA000000
1ACEFFFFF5000000
2FFFFFFFD0000000
0ADA765310000000
ENDCHAR
STARTCHAR asciitilde
ENCODING 126
SWIDTH 581 0
DWIDTH 10 0
BBX 10 5 0 3
BITMAP
0002100000
06EFF907FC
4FFEFFDFF4
DF71BFFF60
1100023100
ENDCHAR
STARTCHAR uni00A0
ENCODING 160
SWIDTH 370 0
DWIDTH 7 0
BBX 1 1 0 0
BITMAP
00
ENDCHAR
STARTCHAR exclamdown
ENCODING 161
SWIDTH 260 0
DWIDTH 5 0
BBX 6 15 -1 -1
BITMAP
000240
002EF4
006FF8
003AC1
000000
006A20
01EF60
04FF50
07FF30
0AFE10
0CFA00
1FF900
1FF500
1DE100
032000
ENDCHAR
STARTCHAR cent
ENCODING 162
SWIDTH 488 0
DWIDTH 9 0
BBX 9 15 0 -1
BITMAP
0000010000
00000D5000
00005FB000
00009FFB10
0029FFFF40
04EFFFC600
3EFFB30000
BFE4000000
BF60000000
8FA5321000
2EFFFFFB00
01EFFFFA00
02FF721000
03FE100000
0033000000
ENDCHAR
STARTCHAR sterling
ENCODING 163
SWIDTH 586 0
DWIDTH 11 0
BBX 12 11 -1 1
BITMAP
000000699540
00001CFFFFF4
00009FFCADF5
0001EFA00020
037BFFEB8000
09FFFFFFF800
04EFFB875000
001FF5003200
19BFFBBEFE10
1EFFFFFFFF20
049BA9875200
ENDCHAR
STARTCHAR currency
ENCODING 164
SWIDTH 509 0
DWIDTH 9 0
BBX 9 10 0 0
BITMAP
0570470530
09FCFFDFC0
06FFFFFF70
07FFFFF500
2FFB1EF700
5FF9AFFA00
6FFFFFF500
AFFFDFF400
BE1009F300
3500003000
ENDCHAR
STARTCHAR yen
ENCODING 165
SWIDTH 563 0
DWIDTH 10 0
BBX 11 13 0 -1
BITMAP
002000003200
00DD3007FD20
00BF907FFF20
00AFC2EFF400
007FFDFF5000
004FFFFA0000
8DFFFFFFC200
9FFFFFFFE500
199FFC210000
00AFF4000000
01FFA0000000
00BF20000000
000100000000
ENDCHAR
STARTCHAR brokenbar
ENCODING 166
SWIDTH 301 0
DWIDTH 5 0
BBX 7 15 -1 -1
BITMAP
00000200
00002E20
00008F80
0000DF90
0004FF30
0009FC00
0008F600
00002000
00220000
00DF4000
04FF3000
0BFC0000
2FF60000
2FE20000
02200000
ENDCHAR
STARTCHAR section
ENCODING 167
SWIDTH 630 0
DWIDTH 11 0
BBX 12 17 0 -2
BITMAP
000000012200
00037BEFFF70
02DFFFFFFFF1
06FFFFCA9C70
07FFF8000000
01DFFFE81000
01BFFFFFE400
0CFFFFFFFE30
4FFD6208FF90
1FFE88BFFF70
06FFFFFFFB00
004DFFFFE100
00005DFFFA00
042136EFFC00
8FFFFFFFFA00
8FFFFFFD8200
07AA86200000
ENDCHAR
STARTCHAR dieresis
ENCODING 168
SWIDTH 754 0
DWIDTH 14 0
BBX 8 4 4 10
BITMAP
02000100
AF801FF5
EFE12FFA
8B300691
ENDCHAR
STARTCHAR copyright
ENCODING 169
SWIDTH 614 0
DWIDTH 11 0
BBX 11 12 0 1
BITMAP
00017AFC3000
002DFD85E700
01DF60286F40
0AF73BFF5EA0
2FD3EF940BE0
7F6CC2000AE0
9F2D60000DD0
8F49FEC26F70
3F905996FC10
07F744BFC100
004CFFD71000
000001000000
ENDCHAR
STARTCHAR ordfeminine
ENCODING 170
SWIDTH 454 0
DWIDTH 8 0
BBX 8 9 0 3
BITMAP
00007400
0029FF40
01EFFF60
07FFFFA0
1EFECFFB
7FFFFFFB
DFCADFF5
CF507FD1
12000410
ENDCHAR
STARTCHAR guillemotleft
ENCODING 171
SWIDTH 566 0
DWIDTH 10 0
BBX 11 9 -1 -1
BITMAP
000019100740
0002DF308FA0
005EFB2BFF30
1BFFB8EFE400
2FF80BFD1000
0BFE45FF8000
01CFE17FF600
0008F604DC00
000022000400
ENDCHAR
STARTCHAR logicalnot
ENCODING 172
SWIDTH 698 0
DWIDTH 13 0
BBX 12 8 0 -1
BITMAP
000001110000
9CDFFFFFFD50
CFFFFFFFFFF3
3B976554AFF1
00000001EFA0
00000005FF30
00000003EC00
000000001000
ENDCHAR
STARTCHAR sfthyphen
ENCODING 173
SWIDTH 608 0
DWIDTH 11 0
BBX 10 4 0 3
BITMAP
0000111000
5BDFFFFFC2
7FFFFFFFF9
1A96554320
ENDCHAR
STARTCHAR registered
ENCODING 174
SWIDTH 624 0
DWIDTH 11 0
BBX 12 12 0 1
BITMAP
00007AFD5000
001CFE95C900
00CF91993F70
07FA1AFF6CC0
0EE1CE4EA8F1
4F92FEEF47F2
7F56FF810AF1
6F7AEEE97FA0
1EC6529EFE20
05F9449FD200
003AFFE81000
000001000000
ENDCHAR
STARTCHAR macron
ENCODING 175
SWIDTH 754 0
DWIDTH 14 0
BBX 7 4 4 10
BITMAP
01234410
3FFFFFC0
4FFFFFA0
14211000
ENDCHAR
STARTCHAR degree
ENCODING 176
SWIDTH 284 0
DWIDTH 5 0
BBX 6 6 1 9
BITMAP
000650
008FD0
09FFF3
3FD8FA
7FFFFB
1CFD81
ENDCHAR
STARTCHAR plusminus
ENCODING 177
SWIDTH 559 0
DWIDTH 10 0
BBX 11 14 -1 -1
BITMAP
000000230000
000002ED1000
000007FF2000
00000BFF2000
019ADFFFEC40
02FFFFFFFFF0
009CCFFA6410
00009FF40000
0000BFE00000
00005B500000
024667763000
6FFFFFFFF700
3FFFEEEDB600
043100000000
ENDCHAR
STARTCHAR twosuperior
ENCODING 178
SWIDTH 386 0
DWIDTH 7 0
BBX 7 7 1 6
BITMAP
4ACB7000
9FFFF800
27CFFA00
0AFFB100
8FFEAD60
AFFFFFA0
3AA86300
ENDCHAR
STARTCHAR threesuperior
ENCODING 179
SWIDTH 366 0
DWIDTH 7 0
BBX 7 7 1 6
BITMAP
28ACC300
AFFFFC00
6DFFF600
05FFF700
039EFF10
0BFFFD00
06BA6100
ENDCHAR
STARTCHAR acute
ENCODING 180
SWIDTH 754 0
DWIDTH 14 0
BBX 6 6 5 8
BITMAP
000130
003DE2
03EFF7
2EFF91
AFF700
8C4000
ENDCHAR
STARTCHAR mu
ENCODING 181
SWIDTH 569 0
DWIDTH 10 0
BBX 11 12 -1 -2
BITMAP
000000000620
002500000E90
009F30002FE0
00BF80006FE0
00EF7000DFB0
03FF5009FF40
06FF63BFFA00
08FFFFFFA000
0DFFFFFC1000
0FFDED600000
2FF200000000
1C9000000000
ENDCHAR
STARTCHAR paragraph
ENCODING 182
SWIDTH 729 0
DWIDTH 13 0
BBX 14 15 1 -1
BITMAP
00000001368400
00149BEFFFFF80
07EFFFFFFFFFF3
AFFFFFFF9FFA30
DFFD7BFD2FF500
CFF20EF96FF100
6FFB7FF79FD000
08FFFFFACFA000
004BFFFFFFB000
0000DFDEFFE300
0001FF89FE0000
0002FF4BFC0000
0006FF1AFF2000
0009FB05FF4000
00004100550000
ENDCHAR
STARTCHAR periodcentered
ENCODING 183
SWIDTH 226 0
DWIDTH 4 0
BBX 4 4 0 5
BITMAP
0010
0CE4
3FFB
0AA2
ENDCHAR
STARTCHAR cedilla
ENCODING 184
SWIDTH 754 0
DWIDTH 14 0
BBX 7 7 4 -6
BITMAP
003E9000
00EF5000
01FFF800
0038DF80
0556BFE0
2EFFFF60
03775100
ENDCHAR
STARTCHAR onesuperior
ENCODING 185
SWIDTH 206 0
DWIDTH 4 0
BBX 3 7 1 6
BITMAP
2C30
4FD0
1FF0
4FE0
9FB0
CF50
6A10
ENDCHAR
STARTCHAR ordmasculine
ENCODING 186
SWIDTH 445 0
DWIDTH 8 0
BBX 8 9 0 3
BITMAP
00007900
001AFF80
01CFFFA0
0CFFFFF2
6FFA2EF8
BFF69FFC
BFFFFFF8
4FFFFE80
02563000
ENDCHAR
STARTCHAR guillemotright
ENCODING 187
SWIDTH 595 0
DWIDTH 11 0
BBX 11 9 -1 -1
BITMAP
056000920000
06FC20CF7000
01DFE35FFA00
002BFD05EF60
002CFF16FF90
04EFD6AFFA30
3FF919FE5000
5F700BE20000
040002200000
ENDCHAR
STARTCHAR onequarter
ENCODING 188
SWIDTH 705 0
DWIDTH 13 0
BBX 12 15 0 -1
BITMAP
000000000200
04B200009D00
06FA0007FD00
03FD004FFA00
06FC01DFD100
0CF80BFE2000
0EF39FF40010
0895FF8209C0
003EFAAE1DF2
02EFC0BFAFF9
0CFD108FFFFD
4FF40019FF71
6FF00001FE00
4FC00000EF30
021000002400
ENDCHAR
STARTCHAR onehalf
ENCODING 189
SWIDTH 750 0
DWIDTH 14 0
BBX 13 15 0 -1
BITMAP
00000000020000
04B200009D0000
06FA0007FD0000
03FD004FFA0000
06FC01DFD10000
0CF80BFE200000
0EF39FF4000000
0895FF75762000
003EFA6FFFE300
02EFC03CDFF900
0CFD1004EFD200
4FF4003FFD7810
6FF0008FFFFF70
4FC0004EFDA710
02100000000000
ENDCHAR
STARTCHAR threequarters
ENCODING 190
SWIDTH 818 0
DWIDTH 15 0
BBX 13 14 1 -1
BITMAP
4DFFF700009A00
AFFFFD0009FC00
2CFFD3008FF900
08FFE206FFA000
4BDFF66FF90000
AFFFC7FF800100
25534FF8207D00
0005FF8AE1DF20
006FF80CFAFF80
05FF800BFFFFA0
0DF90003CFE500
3FF300008F9000
4FC000007FA000
02100000141000
ENDCHAR
STARTCHAR questiondown
ENCODING 191
SWIDTH 556 0
DWIDTH 10 0
BBX 12 15 -2 -1
BITMAP
000000000100
000000007E90
00000000CFF1
000000007ED0
000000000000
00000005A500
0000018FF800
00006EFFD200
003BFFFC2000
04FFFF810000
0CFFD3000000
1FFFFCA9BE30
1FFFFFFFFF70
06CFFFFFFC10
000146887100
ENDCHAR
STARTCHAR Agrave
ENCODING 192
SWIDTH 702 0
DWIDTH 13 0
BBX 14 21 -1 -1
BITMAP
00000004000000
0000005FB10000
000000BFFC1000
0000002CFFB000
00000000AFF600
0000000007D400
00000000000000
00000007C71000
0000005FFF5000
00003CFFFF8000
0000CFFFFFA000
0005FFFDFFD000
000CFFE2EFF100
003FFF50BFFA50
00BFFE8AEFFFF7
03FFFFFFFFFFB1
0AFFABFFEFFF20
2FFF21420CFF40
3FFC0000BFFE10
0CE500003FE400
00000000010000
ENDCHAR
STARTCHAR Aacute
ENCODING 193
SWIDTH 702 0
DWIDTH 13 0
BBX 14 21 -1 -1
BITMAP
00000000004000
000000002CF400
00000001DFF900
0000001CFFB100
0000008FF90000
0000005D600000
00000000000000
00000007C71000
0000005FFF5000
00003CFFFF8000
0000CFFFFFA000
0005FFFDFFD000
000CFFE2EFF100
003FFF50BFFA50
00BFFE8AEFFFF7
03FFFFFFFFFFB1
0AFFABFFEFFF20
2FFF21420CFF40
3FFC0000BFFE10
0CE500003FE400
00000000010000
ENDCHAR
STARTCHAR Acircumflex
ENCODING 194
SWIDTH 702 0
DWIDTH 13 0
BBX 14 19 -1 -1
BITMAP
00000003CA1000
0000004EFFD200
000006FFBDFE30
00000AFB02EF60
00000290002900
00000007C71000
0000005FFF5000
00003CFFFF8000
0000CFFFFFA000
0005FFFDFFD000
000CFFE2EFF100
003FFF50BFFA50
00BFFE8AEFFFF7
03FFFFFFFFFFB1
0AFFABFFEFFF20
2FFF21420CFF40
3FFC0000BFFE10
0CE500003FE400
00000000010000
ENDCHAR
STARTCHAR Atilde
ENCODING 195
SWIDTH 702 0
DWIDTH 13 0
BBX 14 19 -1 -1
BITMAP
00000003750045
0000007FFFB7FE
000003FFCFFFF6
000006D709ED70
00000000000000
00000007C71000
0000005FFF5000
00003CFFFF8000
0000CFFFFFA000
0005FFFDFFD000
000CFFE2EFF100
003FFF50BFFA50
00BFFE8AEFFFF7
03FFFFFFFFFFB1
0AFFABFFEFFF20
2FFF21420CFF40
3FFC0000BFFE10
0CE500003FE400
00000000010000
ENDCHAR
STARTCHAR Adieresis
ENCODING 196
SWIDTH 702 0
DWIDTH 13 0
BBX 14 19 -1 -1
BITMAP
00000011001100
000007FA00DF80
00000CFF30FFC0
000006B5004920
00000000000000
00000007C71000
0000005FFF5000
00003CFFFF8000
0000CFFFFFA000
0005FFFDFFD000
000CFFE2EFF100
003FFF50BFFA50
00BFFE8AEFFFF7
03FFFFFFFFFFB1
0AFFABFFEFFF20
2FFF21420CFF40
3FFC0000BFFE10
0CE500003FE400
00000000010000
ENDCHAR
STARTCHAR Aring
ENCODING 197
SWIDTH 702 0
DWIDTH 13 0
BBX 14 19 -1 -1
BITMAP
00000000013000
000000002DF100
00000003EFF500
0000000CF8FC00
0000003FFDFF00
0000001EFFE600
0000005FFF5000
00003CFFFF8000
0000CFFFFFA000
0005FFFDFFD000
000CFFE2EFF100
003FFF50BFFA50
00BFFE8AEFFFF7
03FFFFFFFFFFB1
0AFFABFFEFFF20
2FFF21420CFF40
3FFC0000BFFE10
0CE500003FE400
00000000010000
ENDCHAR
STARTCHAR AE
ENCODING 198
SWIDTH 1153 0
DWIDTH 21 0
BBX 24 14 -2 -1
BITMAP
000000000AB50000258ACE70
00000001AFFE04ADFFFFFFF3
000000AEFFFF3FFFFFFFFE70
000008FFFFFF1FFFFEB52000
00003FFFEFFF1BFF71120000
0000BFFE2EFF29FFFFFF5000
0005FFF30DFF9FFFFFFFF200
001EFFC9AEFFFFFFFFFB3000
009FFFFFFFFFFFF511000000
03FFE7FFFEFFFFC002369100
0BFF604308FFFFFFFFFFFD10
1FFE00008FFFFFFFFFFFFB00
0BE500002FE65EFFFEDA6000
000000000100001200000000
ENDCHAR
STARTCHAR Ccedilla
ENCODING 199
SWIDTH 611 0
DWIDTH 11 0
BBX 11 19 0 -6
BITMAP
00000019D600
000018EFFF60
0006DFFFFF70
009FFFFFE910
0AFFFFC40000
7FFFE7000000
EFFD20000000
FFE100000000
DFB000000000
9FF853211000
3FFFFFFFF800
04EFFFFFFF10
002BFEFED500
004FD1000000
007FFA200000
0018CFD10000
01224DF70000
08FFFFE30000
018996100000
ENDCHAR
STARTCHAR Egrave
ENCODING 200
SWIDTH 626 0
DWIDTH 11 0
BBX 12 21 0 -1
BITMAP
000004100000
00004FC20000
00009FFD2000
00001AFFD100
0000008FF800
00000005D600
000000000000
00000379BDC2
017BEFFFFFFA
0AFFFFFFFFB2
08FFFFD84100
04FFE2121000
02FFFFFFB100
09FFFFFFF900
1EFFFFFE7000
8FFC01000000
CFF501248600
BFFFFFFFFF70
8FFFFFFFFF40
1AFFFEEC8200
001210000000
ENDCHAR
STARTCHAR Eacute
ENCODING 201
SWIDTH 626 0
DWIDTH 11 0
BBX 12 21 0 -1
BITMAP
000000001300
00000003DE20
0000003EFF70
000002EFF910
00000AFF7000
000008C40000
000000000000
00000379BDC2
017BEFFFFFFA
0AFFFFFFFFB2
08FFFFD84100
04FFE2121000
02FFFFFFB100
09FFFFFFF900
1EFFFFFE7000
8FFC01000000
CFF501248600
BFFFFFFFFF70
8FFFFFFFFF40
1AFFFEEC8200
001210000000
ENDCHAR
STARTCHAR Ecircumflex
ENCODING 202
SWIDTH 626 0
DWIDTH 11 0
BBX 12 20 0 -1
BITMAP
0000008D5000
00001BFFF700
0001CFE9FF90
0003FF409FD0
000083000740
000000000000
00000379BDC2
017BEFFFFFFA
0AFFFFFFFFB2
08FFFFD84100
04FFE2121000
02FFFFFFB100
09FFFFFFF900
1EFFFFFE7000
8FFC01000000
CFF501248600
BFFFFFFFFF70
8FFFFFFFFF40
1AFFFEEC8200
001210000000
ENDCHAR
STARTCHAR Edieresis
ENCODING 203
SWIDTH 626 0
DWIDTH 11 0
BBX 12 19 0 -1
BITMAP
000002000100
0001DE406FD2
0004FFA07FF5
0001A9101860
000000000000
00000379BDC2
017BEFFFFFFA
0AFFFFFFFFB2
08FFFFD84100
04FFE2121000
02FFFFFFB100
09FFFFFFF900
1EFFFFFE7000
8FFC01000000
CFF501248600
BFFFFFFFFF70
8FFFFFFFFF40
1AFFFEEC8200
001210000000
ENDCHAR
STARTCHAR Igrave
ENCODING 204
SWIDTH 515 0
DWIDTH 9 0
BBX 13 21 -1 -1
BITMAP
00000130000000
00000CF6000000
00002FFF700000
000005EFF60000
0000003EFF0000
00000002AC0000
00000000110000
0008ADFFFFEA00
000EFFFFFFFF90
000AFEFFEA9610
000032FFA00000
000005FF600000
00000AFF100000
00001EFC000000
00006FF8000000
0000CFF3000000
0004FFC1000000
48BDFFFF600000
8FFFFFFFE00000
3FFCAA87200000
02100000000000
ENDCHAR
STARTCHAR Iacute
ENCODING 205
SWIDTH 515 0
DWIDTH 9 0
BBX 13 21 -1 -1
BITMAP
00000000002300
0000000004EE10
000000004EFF50
00000003EFF800
0000000CFF5000
00000009C30000
00000000110000
0008ADFFFFEA00
000EFFFFFFFF90
000AFEFFEA9610
000032FFA00000
000005FF600000
00000AFF100000
00001EFC000000
00006FF8000000
0000CFF3000000
0004FFC1000000
48BDFFFF600000
8FFFFFFFE00000
3FFCAA87200000
02100000000000
ENDCHAR
STARTCHAR Icircumflex
ENCODING 206
SWIDTH 515 0
DWIDTH 9 0
BBX 13 20 -1 -1
BITMAP
00000006D70000
0000009FFFA000
00000AFF9FFB10
00001EF706FF10
00000560005600
00000000110000
0008ADFFFFEA00
000EFFFFFFFF90
000AFEFFEA9610
000032FFA00000
000005FF600000
00000AFF100000
00001EFC000000
00006FF8000000
0000CFF3000000
0004FFC1000000
48BDFFFF600000
8FFFFFFFE00000
3FFCAA87200000
02100000000000
ENDCHAR
STARTCHAR Idieresis
ENCODING 207
SWIDTH 515 0
DWIDTH 9 0
BBX 13 19 -1 -1
BITMAP
00000020001000
00000AF801FF50
00000EFE12FFA0
000008B3006910
00000000110000
0008ADFFFFEA00
000EFFFFFFFF90
000AFEFFEA9610
000032FFA00000
000005FF600000
00000AFF100000
00001EFC000000
00006FF8000000
0000CFF3000000
0004FFC1000000
48BDFFFF600000
8FFFFFFFE00000
3FFCAA87200000
02100000000000
ENDCHAR
STARTCHAR Eth
ENCODING 208
SWIDTH 656 0
DWIDTH 12 0
BBX 13 14 -1 -1
BITMAP
0007C610000000
0008FFEA200000
0009FFFFE60000
000BFA9EFF9000
0009FB117FF700
1BEFFFE205FF20
2FFFFFF900CF70
0EEFFD611AFF70
021EFA18FFFE10
004FFEFFFFE300
007FFFFFF91000
005FFFFA300000
001EE820000000
00010000000000
ENDCHAR
STARTCHAR Ntilde
ENCODING 209
SWIDTH 684 0
DWIDTH 12 0
BBX 15 18 -1 0
BITMAP
0000000166202520
0000003EFFE5EF50
000000CFDFFFFB00
000002DB15DEA100
0000000000000000
00000C60001E5000
00006FF9006FF600
0000DFFF10CFFA00
0005FFFE00EFF500
000CFFFA02FFE000
005FFFF705FFB000
00CFFFF70BFF8000
04FFFFF74FFF7000
0BFFFFFCEFFF3000
2FFFE8FFFFFD0000
1FFF61DFFFF40000
0AFF102DFF800000
02D8000285000000
ENDCHAR
STARTCHAR Ograve
ENCODING 210
SWIDTH 744 0
DWIDTH 13 0
BBX 13 21 0 -1
BITMAP
00000002200000
0000001DE40000
0000004FFF5000
00000007FFF400
000000004EFD00
0000000003BA00
00000000400000
0000003BFB0000
000003EFFF8000
00006FFFFF7000
0007FFFFFFA000
007FFFEABFF300
04FFFC102FFB00
0DFFB10008FF30
5FFE100002FF70
AFF5000007FFB0
CFF30137DFFF90
AFFFFFFFFFFE30
3FFFFFFFFFB200
04DFFFEC820000
00011200000000
ENDCHAR
STARTCHAR Oacute
ENCODING 211
SWIDTH 744 0
DWIDTH 13 0
BBX 13 21 0 -1
BITMAP
00000000040000
00000002CF4000
0000001DFF9000
000001CFFB1000
000008FF900000
000005D6000000
00000000400000
0000003BFB0000
000003EFFF8000
00006FFFFF7000
0007FFFFFFA000
007FFFEABFF300
04FFFC102FFB00
0DFFB10008FF30
5FFE100002FF70
AFF5000007FFB0
CFF30137DFFF90
AFFFFFFFFFFE30
3FFFFFFFFFB200
04DFFFEC820000
00011200000000
ENDCHAR
STARTCHAR Ocircumflex
ENCODING 212
SWIDTH 744 0
DWIDTH 13 0
BBX 13 20 0 -1
BITMAP
00000004C91000
0000006FFFC100
000007FFAEFD20
00000CFA03EF40
00000380002900
00000000400000
0000003BFB0000
000003EFFF8000
00006FFFFF7000
0007FFFFFFA000
007FFFEABFF300
04FFFC102FFB00
0DFFB10008FF30
5FFE100002FF70
AFF5000007FFB0
CFF30137DFFF90
AFFFFFFFFFFE30
3FFFFFFFFFB200
04DFFFEC820000
00011200000000
ENDCHAR
STARTCHAR Otilde
ENCODING 213
SWIDTH 744 0
DWIDTH 13 0
BBX 14 19 0 -1
BITMAP
00000016620252
000003EFFE5EF5
00000CFDFFFFB0
00002DB15DEA10
00000000400000
0000003BFB0000
000003EFFF8000
00006FFFFF7000
0007FFFFFFA000
007FFFEABFF300
04FFFC102FFB00
0DFFB10008FF30
5FFE100002FF70
AFF5000007FFB0
CFF30137DFFF90
AFFFFFFFFFFE30
3FFFFFFFFFB200
04DFFFEC820000
00011200000000
ENDCHAR
STARTCHAR Odieresis
ENCODING 214
SWIDTH 744 0
DWIDTH 13 0
BBX 13 19 0 -1
BITMAP
00000020001000
00000BF603FF40
00001FFD04FF80
000009A2017810
00000000400000
0000003BFB0000
000003EFFF8000
00006FFFFF7000
0007FFFFFFA000
007FFFEABFF300
04FFFC102FFB00
0DFFB10008FF30
5FFE100002FF70
AFF5000007FFB0
CFF30137DFFF90
AFFFFFFFFFFE30
3FFFFFFFFFB200
04DFFFEC820000
00011200000000
ENDCHAR
STARTCHAR multiply
ENCODING 215
SWIDTH 490 0
DWIDTH 9 0
BBX 9 10 0 0
BITMAP
0310000100
0BE4007E70
0BFE4BFF90
02EFFFE700
008FFD2000
04EFFA0000
3EFDFF5000
BFC17FE000
EE101EF200
A800047000
ENDCHAR
STARTCHAR Oslash
ENCODING 216
SWIDTH 744 0
DWIDTH 13 0
BBX 13 17 0 -3
BITMAP
00000000400110
0000003BFB3E80
000003EFFFFF90
00006FFFFFFF80
0007FFFFFFFE20
007FFFEDFFF500
04FFFC4EFFFA00
0DFFB1DFFCFF30
5FFE19FFA2FF70
AFF58FFC17FFB0
CFF8FFF9DFFF90
AFFFFFFFFFFE30
3FFFFFFFFFB200
05FFFFEC820000
04FFA200000000
01EF6000000000
00240000000000
ENDCHAR
STARTCHAR Ugrave
ENCODING 217
SWIDTH 695 0
DWIDTH 13 0
BBX 13 19 0 0
BITMAP
00002200000000
0001DE40000000
0005FFF4000000
00007FFF400000
000005EFD00000
0000003BA00000
00000000005C10
01700000009F50
07F8000000DFA0
0AFF100001FFE0
0CFF500006FFB0
0FFF30000DFF80
1FFF00008FFF20
1FFF0008FFF900
1FFF35CFFFC100
0EFFFFFFFC1000
08FFFFFFE20000
02FFFFFB200000
004BCB40000000
ENDCHAR
STARTCHAR Uacute
ENCODING 218
SWIDTH 695 0
DWIDTH 13 0
BBX 13 19 0 0
BITMAP
00000000023000
000000004EE100
00000004EFF500
0000003EFF8000
000000CFF50000
0000009C300000
00000000005C10
01700000009F50
07F8000000DFA0
0AFF100001FFE0
0CFF500006FFB0
0FFF30000DFF80
1FFF00008FFF20
1FFF0008FFF900
1FFF35CFFFC100
0EFFFFFFFC1000
08FFFFFFE20000
02FFFFFB200000
004BCB40000000
ENDCHAR
STARTCHAR Ucircumflex
ENCODING 219
SWIDTH 695 0
DWIDTH 13 0
BBX 13 19 0 0
BITMAP
0000006D700000
000009FFFA0000
0000AFF9FFB100
0001EF706FF100
00005600056000
00000000000000
00000000005C10
01700000009F50
07F8000000DFA0
0AFF100001FFE0
0CFF500006FFB0
0FFF30000DFF80
1FFF00008FFF20
1FFF0008FFF900
1FFF35CFFFC100
0EFFFFFFFC1000
08FFFFFFE20000
02FFFFFB200000
004BCB40000000
ENDCHAR
STARTCHAR Udieresis
ENCODING 220
SWIDTH 695 0
DWIDTH 13 0
BBX 13 18 0 0
BITMAP
00000200010000
0000CF603FE400
0001FFD05FF800
00009A20177100
00000000000000
00000000005C10
01700000009F50
07F8000000DFA0
0AFF100001FFE0
0CFF500006FFB0
0FFF30000DFF80
1FFF00008FFF20
1FFF0008FFF900
1FFF35CFFFC100
0EFFFFFFFC1000
08FFFFFFE20000
02FFFFFB200000
004BCB40000000
ENDCHAR
STARTCHAR Yacute
ENCODING 221
SWIDTH 493 0
DWIDTH 9 0
BBX 11 21 0 -1
BITMAP
000000002200
00000004ED10
0000004FFF50
000004FFF700
00000DFE5000
00000AB30000
010000000200
0DB30004EE30
0EFD003FFFC0
0CFF21EFFE40
0AFF5AFFF400
07FFDFFF6000
03FFFFFA0000
00BFFFE10000
004FFF700000
00BFFC000000
04FFF4000000
0BFFB0000000
2FFF20000000
1EFA00000000
028100000000
ENDCHAR
STARTCHAR Thorn
ENCODING 222
SWIDTH 680 0
DWIDTH 12 0
BBX 13 14 0 -1
BITMAP
005E2000000000
00DF8000000000
03FFEA98530000
07FFFFFFFFB200
0AFFEDDEFFFD00
0EFF60008FFF40
2FFF3006FFFF40
5FFF17DFFFF700
6FFFFFFFFC4000
7FFFFFE9400000
5FFEA500000000
1FFB0000000000
0BF70000000000
01100000000000
ENDCHAR
STARTCHAR germandbls
ENCODING 223
SWIDTH 931 0
DWIDTH 17 0
BBX 19 12 0 -1
BITMAP
000037ACC500169CC900
027DFFFFFE5AFFFFFF60
5FFFFFCDDFFFFFDDDD80
BFFFB1005FFFE4000000
AFFFFD304FFFFF800000
169BEFC0048ACFF30000
000008F6000003EC0000
00002DF7000008FD0000
0249FFE20137DFF70000
1FFFFE400AFFFF900000
1FFF920009FFC5000000
03410000014200000000
ENDCHAR
STARTCHAR agrave
ENCODING 224
SWIDTH 581 0
DWIDTH 10 0
BBX 12 18 -1 -1
BITMAP
000001400000
000009F80000
00000FFF9000
000004DFF800
0000002CFF30
000000019D10
000000672000
000005FFB000
0002DFFFD000
0009FFFFF100
002FFF8FF400
008FF71FFA30
01EFF8AFFFF4
07FFEFFFFF90
0DFB5CA9FF40
4FF5001BFF40
1ED1000AF900
011000002000
ENDCHAR
STARTCHAR aacute
ENCODING 225
SWIDTH 581 0
DWIDTH 10 0
BBX 12 19 -1 -1
BITMAP
000000003200
00000005EC00
0000006FFF30
000005FFF600
00000EFE4000
00000BB20000
000000000000
000000672000
000005FFB000
0002DFFFD000
0009FFFFF100
002FFF8FF400
008FF71FFA30
01EFF8AFFFF4
07FFEFFFFF90
0DFB5CA9FF40
4FF5001BFF40
1ED1000AF900
011000002000
ENDCHAR
STARTCHAR acircumflex
ENCODING 226
SWIDTH 581 0
DWIDTH 10 0
BBX 12 17 -1 -1
BITMAP
0000007D6000
00000AFFF900
0001BFF9FFA0
0001FF607FE0
000065000650
000000672000
000005FFB000
0002DFFFD000
0009FFFFF100
002FFF8FF400
008FF71FFA30
01EFF8AFFFF4
07FFEFFFFF90
0DFB5CA9FF40
4FF5001BFF40
1ED1000AF900
011000002000
ENDCHAR
STARTCHAR atilde
ENCODING 227
SWIDTH 581 0
DWIDTH 10 0
BBX 13 17 -1 -1
BITMAP
00000266103510
00004FFFD5FF30
0001DFCFFFF900
0003DA07EE9100
00000000000000
00000067200000
000005FFB00000
0002DFFFD00000
0009FFFFF10000
002FFF8FF40000
008FF71FFA3000
01EFF8AFFFF400
07FFEFFFFF9000
0DFB5CA9FF4000
4FF5001BFF4000
1ED1000AF90000
01100000200000
ENDCHAR
STARTCHAR adieresis
ENCODING 228
SWIDTH 581 0
DWIDTH 10 0
BBX 12 17 -1 -1
BITMAP
000001000110
00008FA00EF7
0000CFF20FFC
00006B400592
000000000000
000000672000
000005FFB000
0002DFFFD000
0009FFFFF100
002FFF8FF400
008FF71FFA30
01EFF8AFFFF4
07FFEFFFFF90
0DFB5CA9FF40
4FF5001BFF40
1ED1000AF900
011000002000
ENDCHAR
STARTCHAR aring
ENCODING 229
SWIDTH 581 0
DWIDTH 10 0
BBX 12 16 -1 -1
BITMAP
00000001A500
0000002DFB00
000001DFEF20
000007FBAF80
000009FFFF60
000006FFD400
0002DFFFD000
0009FFFFF100
002FFF8FF400
008FF71FFA30
01EFF8AFFFF4
07FFEFFFFF90
0DFB5CA9FF40
4FF5001BFF40
1ED1000AF900
011000002000
ENDCHAR
STARTCHAR ae
ENCODING 230
SWIDTH 948 0
DWIDTH 17 0
BBX 20 12 -2 -1
BITMAP
00000001940000357A80
0000002CFF25AEFFFFF7
00000BFFFF5FFFFFFC81
00008FFFFF3FFE861000
0002FFE8FF3AFE9A9000
000BFF44FF8EFFFFFA00
005FFD8BFFFFFEFEA200
01EFEFFFFFFFC0000000
08FE4CB8EFFFA678BC20
1FF90008FFFFFFFFFF70
0ED20008FB8FFFFFC700
01100000300133100000
ENDCHAR
STARTCHAR ccedilla
ENCODING 231
SWIDTH 513 0
DWIDTH 9 0
BBX 9 17 0 -6
BITMAP
0000018810
00007EFFA0
004DFFFFA0
07FFFFC700
4FFFD30000
CFF8000000
FF80000000
DF40000000
8FEC977500
1DFFFFFF50
008FFFFD20
007F821000
009FE80000
0016BF8000
0478BFC000
06FFFC3000
0012100000
ENDCHAR
STARTCHAR egrave
ENCODING 232
SWIDTH 521 0
DWIDTH 9 0
BBX 10 18 0 -1
BITMAP
0004000000
006FA10000
00CFFC1000
002CFFB000
0001BFF600
000007E300
0000147992
039CFFFFFC
0DFFFFFEA2
0AFFA72000
05FFA9A200
0AFFFFFE10
2FFEFEC400
AFF2000000
CFD678AD50
AFFFFFFFC0
3EFFFFD920
0133110000
ENDCHAR
STARTCHAR eacute
ENCODING 233
SWIDTH 521 0
DWIDTH 9 0
BBX 10 18 0 -1
BITMAP
0000000410
0000007FA0
000008FFF1
00007FFE50
0002FFD200
0000D91000
0000147992
039CFFFFFC
0DFFFFFEA2
0AFFA72000
05FFA9A200
0AFFFFFE10
2FFEFEC400
AFF2000000
CFD678AD50
AFFFFFFFC0
3EFFFFD920
0133110000
ENDCHAR
STARTCHAR ecircumflex
ENCODING 234
SWIDTH 521 0
DWIDTH 9 0
BBX 11 17 0 -1
BITMAP
000005D80000
00008FFFB100
0009FF9FFC10
000EF805FF20
000470004700
000014799200
039CFFFFFC00
0DFFFFFEA200
0AFFA7200000
05FFA9A20000
0AFFFFFE1000
2FFEFEC40000
AFF200000000
CFD678AD5000
AFFFFFFFC000
3EFFFFD92000
013311000000
ENDCHAR
STARTCHAR edieresis
ENCODING 235
SWIDTH 521 0
DWIDTH 9 0
BBX 11 17 0 -1
BITMAP
000010001100
0008FA00EF70
000CFF20FFC0
0006B4005920
000000000000
000014799200
039CFFFFFC00
0DFFFFFEA200
0AFFA7200000
05FFA9A20000
0AFFFFFE1000
2FFEFEC40000
AFF200000000
CFD678AD5000
AFFFFFFFC000
3EFFFFD92000
013311000000
ENDCHAR
STARTCHAR igrave
ENCODING 236
SWIDTH 320 0
DWIDTH 6 0
BBX 6 19 1 -1
BITMAP
031000
3ED300
7FFE30
19FFE2
007FFA
0004C7
000000
02A100
09F600
0EF900
2FFB00
6FF500
AFF100
CFC000
DFA000
EFA000
BFB000
5F9000
030000
ENDCHAR
STARTCHAR iacute
ENCODING 237
SWIDTH 320 0
DWIDTH 6 0
BBX 9 19 1 -1
BITMAP
0000002300
000003DE20
00003EFF60
0003EFF810
000BFF6000
0009C30000
0000000000
02A1000000
09F6000000
0EF9000000
2FFB000000
6FF5000000
AFF1000000
CFC0000000
DFA0000000
EFA0000000
BFB0000000
5F90000000
0300000000
ENDCHAR
STARTCHAR icircumflex
ENCODING 238
SWIDTH 320 0
DWIDTH 6 0
BBX 9 17 0 -1
BITMAP
0007D60000
00AFFF9000
1BFF9FFA00
1FF607FE10
0650006500
002A100000
009F600000
00EF900000
02FFB00000
06FF500000
0AFF100000
0CFC000000
0DFA000000
0EFA000000
0BFB000000
05F9000000
0030000000
ENDCHAR
STARTCHAR idieresis
ENCODING 239
SWIDTH 320 0
DWIDTH 6 0
BBX 9 17 0 -1
BITMAP
0020001000
2EE307FD10
5FF908FF40
2B91029600
0000000000
002A100000
009F600000
00EF900000
02FFB00000
06FF500000
0AFF100000
0CFC000000
0DFA000000
0EFA000000
0BFB000000
05F9000000
0030000000
ENDCHAR
STARTCHAR eth
ENCODING 240
SWIDTH 541 0
DWIDTH 10 0
BBX 11 12 -1 -1
BITMAP
002B50000000
002FFE810000
004FFFFD3000
003F94AFE300
16AFE804ED10
6FFFFF408F50
3FEFD606EF60
018FA5DFFD10
00DFFFFFB100
00EFFFD50000
00AFB5000000
000200000000
ENDCHAR
STARTCHAR ntilde
ENCODING 241
SWIDTH 564 0
DWIDTH 10 0
BBX 14 17 -1 -1
BITMAP
00000016620152
000002EFFE5DF7
00000BFDEFFFD0
00001DB24DEB20
00000000000000
00007400083000
0001EF701FF400
0008FFD05FF700
001EFFA08FF100
007FFF60BFC000
01EFFF51EFA000
06FFFF59FF8000
0DFFFFDFFF4000
3FFF4FFFFD0000
0DF906FFF30000
05E4005B400000
00100000000000
ENDCHAR
STARTCHAR ograve
ENCODING 242
SWIDTH 628 0
DWIDTH 11 0
BBX 11 18 0 -1
BITMAP
000002300000
00000DE50000
00004FFF5000
000007FFF400
0000004EFD00
00000003BB00
000002AD2000
00002EFFC000
0005FFFFB000
006FFFFFF200
04FFF62BF900
1DFE4003FF20
6FF50000BF60
BFB00005EFA0
CFC668DFFF70
8FFFFFFFF900
0AFFFFD83000
001231000000
ENDCHAR
STARTCHAR oacute
ENCODING 243
SWIDTH 628 0
DWIDTH 11 0
BBX 11 19 0 -1
BITMAP
000000014000
0000002CF400
000002DFF900
00001DFFA100
00008FF80000
00006D500000
000000000000
000002AD2000
00002EFFC000
0005FFFFB000
006FFFFFF200
04FFF62BF900
1DFE4003FF20
6FF50000BF60
BFB00005EFA0
CFC668DFFF70
8FFFFFFFF900
0AFFFFD83000
001231000000
ENDCHAR
STARTCHAR ocircumflex
ENCODING 244
SWIDTH 628 0
DWIDTH 11 0
BBX 12 18 0 -1
BITMAP
0000006D7000
000009FFFA00
0000AFF9FFB1
0001EF706FF1
000056000560
000000000000
000002AD2000
00002EFFC000
0005FFFFB000
006FFFFFF200
04FFF62BF900
1DFE4003FF20
6FF50000BF60
BFB00005EFA0
CFC668DFFF70
8FFFFFFFF900
0AFFFFD83000
001231000000
ENDCHAR
STARTCHAR otilde
ENCODING 245
SWIDTH 628 0
DWIDTH 11 0
BBX 13 17 0 -1
BITMAP
00000166201520
00002EFFE5DF70
0000BFDEFFFD00
0001DB24DEB200
00000000000000
000002AD200000
00002EFFC00000
0005FFFFB00000
006FFFFFF20000
04FFF62BF90000
1DFE4003FF2000
6FF50000BF6000
BFB00005EFA000
CFC668DFFF7000
8FFFFFFFF90000
0AFFFFD8300000
00123100000000
ENDCHAR
STARTCHAR odieresis
ENCODING 246
SWIDTH 628 0
DWIDTH 11 0
BBX 12 17 0 -1
BITMAP
000002000100
0000AF801FF5
0000EFE12FFA
00008B300691
000000000000
000002AD2000
00002EFFC000
0005FFFFB000
006FFFFFF200
04FFF62BF900
1DFE4003FF20
6FF50000BF60
BFB00005EFA0
CFC668DFFF70
8FFFFFFFF900
0AFFFFD83000
001231000000
ENDCHAR
STARTCHAR divide
ENCODING 247
SWIDTH 559 0
DWIDTH 10 0
BBX 10 12 0 -1
BITMAP
0000260000
0000CFA000
0000EFD000
00009A5000
0134566410
CFFFFFFFC2
BFFFFFFDB2
2742100000
002DB40000
008FF60000
003FD20000
0002100000
ENDCHAR
STARTCHAR oslash
ENCODING 248
SWIDTH 632 0
DWIDTH 11 0
BBX 11 14 0 -3
BITMAP
000002AD2870
00002DFFFFA0
0005FFFFFF80
006FFFFFFC10
04FFF7DFFA00
1DFE5AFEFF30
6FF66FF5AF70
BFC5FF84DFB0
CFCEFFDFFF80
8FFFFFFFFA10
0BFFFFE94000
08FE42000000
05FA00000000
001000000000
ENDCHAR
STARTCHAR ugrave
ENCODING 249
SWIDTH 584 0
DWIDTH 11 0
BBX 11 17 0 0
BITMAP
000040000000
0005FB100000
000AFFC10000
0002BFFC1000
00000AFF7000
0000006D4000
000000000910
025000003F70
09F300006FC0
0CFA0000AFD0
0EFB0001FFB0
1FF8000AFF50
1FF7009FFC00
1FFB7DFFD300
0CFFFFFE3000
07FFFFE40000
01AEE8100000
ENDCHAR
STARTCHAR uacute
ENCODING 250
SWIDTH 584 0
DWIDTH 11 0
BBX 11 17 0 0
BITMAP
000000002200
00000004ED10
0000004FFF50
000004FFF700
00000DFE5000
00000AB30000
000000000910
025000003F70
09F300006FC0
0CFA0000AFD0
0EFB0001FFB0
1FF8000AFF50
1FF7009FFC00
1FFB7DFFD300
0CFFFFFE3000
07FFFFE40000
01AEE8100000
ENDCHAR
STARTCHAR ucircumflex
ENCODING 251
SWIDTH 584 0
DWIDTH 11 0
BBX 11 17 0 0
BITMAP
000004CA1000
00005FFFD200
0007FFADFD30
000BFB03EF50
000280002900
000000000000
000000000910
025000003F70
09F300006FC0
0CFA0000AFD0
0EFB0001FFB0
1FF8000AFF50
1FF7009FFC00
1FFB7DFFD300
0CFFFFFE3000
07FFFFE40000
01AEE8100000
ENDCHAR
STARTCHAR udieresis
ENCODING 252
SWIDTH 584 0
DWIDTH 11 0
BBX 11 16 0 0
BITMAP
000010001100
0008FA00EF70
000CFF20FFC0
0006B4005920
000000000000
000000000910
025000003F70
09F300006FC0
0CFA0000AFD0
0EFB0001FFB0
1FF8000AFF50
1FF7009FFC00
1FFB7DFFD300
0CFFFFFE3000
07FFFFE40000
01AEE8100000
ENDCHAR
STARTCHAR yacute
ENCODING 253
SWIDTH 400 0
DWIDTH 7 0
BBX 10 19 0 -1
BITMAP
0000000040
0000001AF6
000001CFFB
00000BFFC2
00006FFA10
00003E7000
0000000000
0B60003C60
0EF503EFF1
0DF91EFF80
0AFCAFF900
07FFFFB000
02FFFF2000
00AFF80000
02EFD10000
09FF500000
1FFC000000
2FF4000000
0460000000
ENDCHAR
STARTCHAR thorn
ENCODING 254
SWIDTH 579 0
DWIDTH 10 0
BBX 11 12 0 -1
BITMAP
00A900000000
03FE20000000
08FFFFEB7100
0AFFFFFFFD10
0EFD223CFF60
3FF9018FFF60
6FF98EFFF800
7FFFFFFB3000
7FFFC6100000
3FF400000000
0DE100000000
010000000000
ENDCHAR
STARTCHAR ydieresis
ENCODING 255
SWIDTH 400 0
DWIDTH 7 0
BBX 11 18 0 -1
BITMAP
000010001000
004ED10AFB00
008FF60BFF10
003B70039400
000000000000
000000000000
0B60003C6000
0EF503EFF100
0DF91EFF8000
0AFCAFF90000
07FFFFB00000
02FFFF200000
00AFF8000000
02EFD1000000
09FF50000000
1FFC00000000
2FF400000000
046000000000
ENDCHAR
STARTCHAR dotlessi
ENCODING 305
SWIDTH 320 0
DWIDTH 6 0
BBX 4 12 1 -1
BITMAP
02A1
09F6
0EF9
2FFB
6FF5
AFF1
CFC0
DFA0
EFA0
BFB0
5F90
0300
ENDCHAR
STARTCHAR Lslash
ENCODING 321
SWIDTH 632 0
DWIDTH 11 0
BBX 13 15 -2 -1
BITMAP
00000100000000
00000EC6000000
00003FFF100000
00008FFD000000
0000DFF7000000
0004FFFD920000
028EFFFFE40000
8FFFFFC6100000
5FFFFE10000000
04BFFA00000000
00CFF9489A9200
00BFFFFFFFFF90
007FFFFFFFFFE0
001CFFEA767840
00002200000000
ENDCHAR
STARTCHAR lslash
ENCODING 322
SWIDTH 533 0
DWIDTH 10 0
BBX 12 12 -2 -1
BITMAP
00005A500000
0000AFF20000
0000EFD00000
0005FF910000
002BFFFE5000
4BFFFFE81000
AFFFF7000000
18CFF1000000
00CFF8CDEB40
00AFFFFFFFF1
003FFFDA9A91
000242000000
ENDCHAR
STARTCHAR OE
ENCODING 338
SWIDTH 1212 0
DWIDTH 22 0
BBX 23 15 0 -1
BITMAP
000000004000000000000000
0000003BFB00000158ACD700
000003EFFF8049DFFFFFFF30
00006FFFFF72FFFFFFFFE700
0007FFFFFFA0FFFFEB630000
007FFFEABFF3AFF811200000
04FFFC102FFA8FFFFFF50000
0DFFB10008FFEFFFFFFF3000
5FFE100002FFFFFFFFB30000
AFF5000007FFFF6110000000
CFF30137DFFFFD0023692000
AFFFFFFFFFFFFFFFFFFFE100
3FFFFFFFFFBEFFFFFFFFC000
04DFFFEC8205DFFFEDB60000
000112000000012100000000
ENDCHAR
STARTCHAR oe
ENCODING 339
SWIDTH 1010 0
DWIDTH 18 0
BBX 19 12 0 -1
BITMAP
000002AD200002579910
00003EFFC04ADFFFFF90
0005FFFFB1FFFFFFD910
006FFFFFF2DFF9610000
04FFF62BF98FF9AA1000
1DFE4003FFDFFFFFC000
6FF50000BFFFEFEB3000
BFB00005EFFE10000000
CFC668DFFFFB678BD300
8FFFFFFFFFFFFFFFF900
0AFFFFD835EFFFFC8100
00123100001331000000
ENDCHAR
STARTCHAR Scaron
ENCODING 352
SWIDTH 576 0
DWIDTH 10 0
BBX 13 20 0 -1
BITMAP
00007800078000
0001FF908FF200
00009FFBFFA000
000007FFF80000
0000005B500000
00000000120000
000016ADFFE400
005CFFFFFFFD00
2DFFFFFFFFFF30
AFFFFA41222200
BFFFFE71000000
6FFFFFFA000000
02579DFF400000
0000006FC00000
000001BFE00000
00016DFFA00000
09BFFFFE200000
0FFFFFC2000000
0CFFC500000000
01310000000000
ENDCHAR
STARTCHAR scaron
ENCODING 353
SWIDTH 463 0
DWIDTH 8 0
BBX 11 18 0 -1
BITMAP
004A0004A000
00DFB05FF400
006FFBFFB100
0004EFFA0000
00003B700000
000000000000
000037ACC500
027DFFFFFE10
5FFFFFCDDD30
BFFFB1000000
AFFFFD300000
169BEFC00000
000008F60000
00002DF70000
0249FFE20000
1FFFFE400000
1FFF92000000
034100000000
ENDCHAR
STARTCHAR Ydieresis
ENCODING 376
SWIDTH 493 0
DWIDTH 9 0
BBX 11 20 0 -1
BITMAP
000010001100
0008FA00EF70
000CFF20FFC0
0006B4005920
000000000000
010000000200
0DB30004EE30
0EFD003FFFC0
0CFF21EFFE40
0AFF5AFFF400
07FFDFFF6000
03FFFFFA0000
00BFFFE10000
004FFF700000
00BFFC000000
04FFF4000000
0BFFB0000000
2FFF20000000
1EFA00000000
028100000000
ENDCHAR
STARTCHAR Zcaron
ENCODING 381
SWIDTH 664 0
DWIDTH 12 0
BBX 14 20 -1 -1
BITMAP
0000001B3001B3
0000006FE31DFB
0000002DFECFE5
00000001CFFE30
0000000018A200
00000000000000
0003BDDCCCBC70
0005FFFFFFFFF4
0001EFFFFFFFF6
00002422CFFFC1
0000002DFFF800
000007EFFF7000
0002CFFFF60000
006EFFFC300000
08FFFF80000000
0EFFE40159E600
2FFFD8CFFFFF30
1EFFFFFFFFE700
06FFFFFDA51000
004AA730000000
ENDCHAR
STARTCHAR zcaron
ENCODING 382
SWIDTH 547 0
DWIDTH 10 0
BBX 13 19 -1 -1
BITMAP
00000780007800
00001FF908FF20
000009FFBFFA00
0000007FFF8000
00000005B50000
00000000000000
00000000000000
00069A88885000
000CFFFFFFF300
0006FECEFFF400
0000006FFF7000
000019FFE40000
0005EFFE300000
019FFFB2000000
0BFFE600110000
1FFF438BFC2000
2FFFFFFFFE2000
0AFFFFEB610000
017A8400000000
ENDCHAR
STARTCHAR circumflex
ENCODING 710
SWIDTH 754 0
DWIDTH 14 0
BBX 8 5 4 9
BITMAP
003CA100
04EFFD20
6FFBDFE3
AFB02EF6
29000290
ENDCHAR
STARTCHAR caron
ENCODING 711
SWIDTH 754 0
DWIDTH 14 0
BBX 8 5 4 9
BITMAP
3B1003B1
AFD13EF7
4EFCEFD2
03EFFC10
002A8100
ENDCHAR
STARTCHAR breve
ENCODING 728
SWIDTH 754 0
DWIDTH 14 0
BBX 8 4 4 10
BITMAP
3A1002B1
AFC45EF6
6FFFFFE3
03BFEA20
ENDCHAR
STARTCHAR dotaccent
ENCODING 729
SWIDTH 754 0
DWIDTH 14 0
BBX 4 4 6 10
BITMAP
0110
5EC1
9FF5
4B70
ENDCHAR
STARTCHAR ring
ENCODING 730
SWIDTH 754 0
DWIDTH 14 0
BBX 6 6 5 9
BITMAP
000820
01CF90
1DFFD0
8F9BF5
BFFFF6
4EEC60
ENDCHAR
STARTCHAR ogonek
ENCODING 731
SWIDTH 754 0
DWIDTH 14 0
BBX 8 6 5 -5
BITMAP
19000000
7F100000
9F300000
6FB75420
1BFFFFE1
0059BB70
ENDCHAR
STARTCHAR tilde
ENCODING 732
SWIDTH 754 0
DWIDTH 14 0
BBX 10 4 3 10
BITMAP
0036610350
06FFFC6FF1
2EFCFFFF80
5D808EE800
ENDCHAR
STARTCHAR hungarumlaut
ENCODING 733
SWIDTH 754 0
DWIDTH 14 0
BBX 11 6 2 8
BITMAP
000031000400
0006FB01AF70
007FFF2BFFC0
06FFE6BFFC20
1FFE35FFB100
0CA203E70000
ENDCHAR
STARTCHAR endash
ENCODING 8211
SWIDTH 588 0
DWIDTH 11 0
BBX 10 4 0 3
BITMAP
0000111000
7CEFFFFFA1
9FFFFFFFF6
2A86554310
ENDCHAR
STARTCHAR emdash
ENCODING 8212
SWIDTH 878 0
DWIDTH 16 0
BBX 15 4 0 3
BITMAP
0001333333210000
8EFFFFFFFFFFE920
6FFFFFFFFFFFFE80
0586543333321000
ENDCHAR
STARTCHAR quoteleft
ENCODING 8216
SWIDTH 203 0
DWIDTH 4 0
BBX 5 6 1 8
BITMAP
018610
08FF90
0EFF30
4FF900
5FF300
2AC000
ENDCHAR
STARTCHAR quoteright
ENCODING 8217
SWIDTH 199 0
DWIDTH 4 0
BBX 5 6 1 8
BITMAP
018300
05FF50
09FF60
1EFE10
8FF800
4DA100
ENDCHAR
STARTCHAR quotesinglbase
ENCODING 8218
SWIDTH 204 0
DWIDTH 4 0
BBX 5 7 -2 -4
BITMAP
026100
08FE10
0CFF20
2FFD00
BFF500
8F9000
010000
ENDCHAR
STARTCHAR quotedblleft
ENCODING 8220
SWIDTH 410 0
DWIDTH 7 0
BBX 9 7 1 7
BITMAP
0194029400
0AFF4CFF50
0FFE4FFD10
3FF78FF500
5FF29FD000
3EE04B8000
0120000000
ENDCHAR
STARTCHAR quotedblright
ENCODING 8221
SWIDTH 425 0
DWIDTH 8 0
BBX 9 6 1 8
BITMAP
0183007400
05FF52FF70
09FF68FF60
1EFE3EFE10
8FF8BFF500
4DA16E7000
ENDCHAR
STARTCHAR quotedblbase
ENCODING 8222
SWIDTH 430 0
DWIDTH 8 0
BBX 9 7 -2 -4
BITMAP
0261016200
08FE15FF30
0CFF2BFF30
2FFD3FFC00
BFF5DFF300
8F91BE6000
0100010000
ENDCHAR
STARTCHAR bullet
ENCODING 8226
SWIDTH 299 0
DWIDTH 5 0
BBX 5 5 0 3
BITMAP
025000
1EFB00
5FFF40
4FFE10
087500
ENDCHAR
STARTCHAR ellipsis
ENCODING 8230
SWIDTH 768 0
DWIDTH 14 0
BBX 14 4 -1 -1
BITMAP
098300A8201A71
6FF908FF70AFF5
3FF505FF307FE1
05400053000620
ENDCHAR
STARTCHAR perthousand
ENCODING 8240
SWIDTH 889 0
DWIDTH 16 0
BBX 17 13 0 0
BITMAP
0004A1000037000000
007FF30004EA000000
06FFFA004EF7000000
0EF6FF13FFA0000000
1FFFFE4EF900000000
07CB85EF8000000000
00003EF80000000000
0004EF82C60006D200
005FF73EFB008FF400
04FF72EFEF37FDFC00
0DF808FBBF8EF7FF20
3FF308FFFF5EFFFD10
2D90019A7204A96100
ENDCHAR
STARTCHAR guilsinglleft
ENCODING 8249
SWIDTH 322 0
DWIDTH 6 0
BBX 7 9 -1 -1
BITMAP
00001910
0002DF30
005EFB00
1BFFB100
2FF80000
0BFE4000
01CFE100
0008F600
00002200
ENDCHAR
STARTCHAR guilsinglright
ENCODING 8250
SWIDTH 341 0
DWIDTH 6 0
BBX 7 9 -1 -1
BITMAP
05600000
06FC2000
01DFE300
002BFD00
002CFF10
04EFD600
3FF91000
5F700000
04000000
ENDCHAR
STARTCHAR fraction
ENCODING 8260
SWIDTH 541 0
DWIDTH 10 0
BBX 10 15 0 -1
BITMAP
0000000011
00000001D7
0000000CF8
0000009FF5
000004FF90
00002EFA00
0001DFC100
000AFE2000
008FF40000
07FF700000
3FF9000000
9FD0000000
CFA0000000
AF70000000
0300000000
ENDCHAR
STARTCHAR Euro
ENCODING 8364
SWIDTH 565 0
DWIDTH 10 0
BBX 11 11 -1 0
BITMAP
00000003A800
0000019FFF80
00006EFFFF50
0006FFFE8300
003FFFA10000
18CFFFDB7000
3FFFFFFFF600
0ADFC7653000
003FFFDBB700
0007FFFFFF20
000027ACB600
ENDCHAR
STARTCHAR Delta
ENCODING 8710
SWIDTH 403 0
DWIDTH 7 0
BBX 11 12 -1 -1
BITMAP
00279BBCB800
006FFFFFFF80
002DCFFA7510
00001FF30000
00006FE00000
0000AF900000
0002FF500000
0007FE100000
013EFC500000
8FFFFFF70000
5FFDCB920000
031000000000
ENDCHAR
STARTCHAR minus
ENCODING 8722
SWIDTH 548 0
DWIDTH 10 0
BBX 11 4 -1 3
BITMAP
000001210000
1ACFFFFFE600
0FFFFFFFFE20
06A765543000
ENDCHAR
STARTCHAR approxequal
ENCODING 8776
SWIDTH 323 0
DWIDTH 6 0
BBX 6 14 0 -1
BITMAP
003D40
00BFA0
01FFE0
04FFF2
07FFD0
0BFF80
0EFF40
2FFF00
3FFD00
4FFC00
2FFD00
0DFE00
08FA00
001000
ENDCHAR
STARTCHAR fi
ENCODING 64257
SWIDTH 810 0
DWIDTH 15 0
BBX 15 12 -1 -1
BITMAP
0000027ACE903900
0038DFFFFFF7CF30
02FFFFEA7653FF70
01DFFB000004FF80
001FF6000008FF30
079FF88A700CFD00
4FFFFFFFE10FFA00
1DFFFDB8301FF800
08FD1000002FF700
0BF80000000DF800
06F600000008F600
0020000000013000
ENDCHAR
STARTCHAR fl
ENCODING 64258
SWIDTH 1012 0
DWIDTH 18 0
BBX 19 12 -1 -1
BITMAP
0000027ACE9098200000
0038DFFFFFF8EFB00000
02FFFFEA7656FF800000
01DFFB00000AFF200000
001FF600001FFC000000
079FF88A706FF6000000
4FFFFFFFE1BFF1000000
1DFFFDB830FFB0000000
08FD100002FFC9DEE920
0BF8000000EFFFFFFFB0
06F60000007FFFCA9A70
00200000000331000000
ENDCHAR
STARTCHAR .notdef
ENCODING -1
SWIDTH 370 0
DWIDTH 7 0
BBX 1 1 0 0
BITMAP
00
ENDCHAR
ENDFONT
